<?xml version="1.0" encoding="utf-8" standalone="no"?>
<!DOCTYPE svg PUBLIC "-//W3C//DTD SVG 1.1//EN"
  "http://www.w3.org/Graphics/SVG/1.1/DTD/svg11.dtd">
<!-- Created with matplotlib (http://matplotlib.org/) -->
<svg height="225pt" version="1.1" viewBox="0 0 600 225" width="600pt" xmlns="http://www.w3.org/2000/svg" xmlns:xlink="http://www.w3.org/1999/xlink">
 <defs>
  <style type="text/css">
*{stroke-linecap:butt;stroke-linejoin:round;}
  </style>
 </defs>
 <g id="figure_1">
  <g id="patch_1">
   <path d="
M0 225
L600 225
L600 0
L0 0
z
" style="fill:#ffffff;"/>
  </g>
  <g id="axes_1">
   <g id="patch_2">
    <path d="
M75 180
L540 180
L540 22.5
L75 22.5
z
" style="fill:#ffffff;"/>
   </g>
   <g id="line2d_1">
    <path clip-path="url(#p12008f58a0)" d="
M75 135
L76.6348 111.877
L78.5033 105.525
L80.3715 91.3427
L82.24 86.8008
L84.1083 124.827
L85.9768 97.2751
L87.8453 74.7233
L89.7135 90.5757
L91.582 103.091
L93.4505 98.4722
L95.3188 46.8643
L97.1873 99.7473
L99.0557 29.0613
L100.924 108.271
L102.792 102.812
L104.661 94.6294
L106.529 104.289
L108.398 136.955
L110.266 143.614
L112.134 121.894
L114.003 86.2211
L115.871 96.3359
L117.74 118.246
L119.608 59.1718
L121.476 81.4745
L123.345 81.9
L127.082 110.987
L128.95 76.4134
L130.819 55.8687
L132.687 58.298
L134.555 91.848
L136.424 139.332
L138.292 63.8111
L140.161 127.405
L142.029 102.963
L143.897 89.9092
L145.766 84.3494
L147.634 89.4945
L149.503 71.5993
L151.371 84.7691
L153.239 111.195
L155.108 61.9976
L156.976 101.988
L158.845 102.717
L160.713 100.224
L162.581 102.491
L164.45 59.0544
L166.318 94.8328
L168.187 126.289
L170.055 116.133
L171.924 125.069
L173.792 85.1377
L175.66 121.754
L177.529 105.133
L179.397 83.0029
L181.266 114.562
L183.134 91.6364
L185.002 97.1699
L186.871 72.9729
L188.739 119.034
L190.608 106.639
L192.476 114.129
L194.344 93.548
L196.213 95.7016
L198.081 131.737
L199.95 68.3247
L201.818 93.5282
L203.687 120.606
L205.555 102.304
L207.423 77.4521
L209.292 95.4443
L211.16 34.7122
L213.029 81.3705
L214.897 75.6715
L216.765 105.727
L218.634 107.245
L220.502 84.5798
L222.371 105.966
L224.239 78.7878
L226.107 92.5973
L227.976 98.6104
L229.844 45.4427
L231.713 95.0859
L233.581 88.3258
L235.449 109.403
L237.318 63.9582
L239.186 108.489
L241.055 42.8185
L242.923 115.686
L244.792 108.194
L246.66 50.9487
L248.528 122.167
L250.397 120.274
L252.265 102.971
L254.134 121.364
L256.002 122.594
L257.87 69.6888
L259.739 122.522
L261.607 74.8742
L263.476 102.638
L265.344 88.9829
L267.212 115.378
L269.081 81.2644
L270.949 111.237
L272.818 56.2099
L274.686 98.5998
L276.555 87.6255
L278.423 103.442
L280.291 71.9489
L282.16 45.9495
L284.028 114.296
L285.897 128.127
L287.765 77.0666
L289.633 62.91
L291.502 96.697
L293.37 69.8711
L295.239 153.812
L298.975 75.1398
L300.844 88.8129
L302.712 93.587
L304.581 56.5321
L306.449 117.153
L308.317 62.995
L310.186 45.2806
L312.054 98.5264
L313.923 106.921
L315.791 109.303
L317.659 83.2896
L319.528 69.2223
L321.396 76.0541
L323.265 111.91
L325.133 90.2772
L327.001 87.4948
L328.87 50.4651
L330.738 92.3776
L332.607 103.563
L334.475 84.6992
L336.343 67.8481
L338.212 131.285
L340.08 80.7189
L341.949 94.5839
L343.817 107.243
L345.685 80.0134
L347.554 68.2119
L349.422 45.733
L351.291 72.2604
L353.159 116.348
L355.027 66.5854
L356.896 101.252
L358.764 55.4079
L360.633 105.565
L362.501 110.467
L364.37 92.5762
L366.238 111.029
L368.106 112.917
L369.975 58.6515
L371.843 84.2489
L373.712 53.1429
L375.58 96.1281
L377.448 87.1708
L379.317 81.6326
L381.185 46.9208
L383.054 119.924
L384.922 74.2956
L386.79 72.3368
L388.659 92.7211
L390.527 76.4026
L392.396 63.1014
L394.264 83.5782
L396.133 120.889
L398.001 79.9545
L399.869 72.469
L401.738 75.2146
L403.606 53.1266
L405.475 94.9088
L407.343 116.358
L411.08 101.963
L412.948 99.6476
L414.817 90.0891
L416.685 109.255
L418.553 116.805
L420.422 68.1997
L422.29 74.4856
L424.159 93.4964
L426.027 90.2433
L427.895 63.2365
L429.764 110.629
L431.632 71.8819
L433.501 83.5303
L435.369 79.6448
L437.238 94.07
L439.106 107.082
L440.974 80.4724
L442.843 116.216
L444.711 87.1776
L446.58 91.3218
L448.448 102.976
L450.316 128.958
L452.185 121.685
L454.053 84.1668
L455.922 130.626
L457.79 89.4446
L459.658 65.2537
L461.527 142.835
L463.395 108.307
L465.264 132.404
L467.132 101.832
L469.001 85.8236
L470.869 75.1689
L472.737 103.197
L474.606 97.1225
L476.474 64.5437
L478.343 73.6926
L480.211 63.5523
L482.079 145.203
L483.948 105.948
L485.816 122.928
L487.685 69.781
L489.553 56.3289
L491.421 132.207
L493.29 103.948
L495.158 130.059
L497.027 86.0392
L498.895 92.4597
L500.763 81.5081
L502.632 99.1161
L504.5 91.1435
L506.369 100.074
L508.237 108.446
L510.106 90.3349
L511.974 91.3094
L513.842 102.345
L515.711 37.3989
L517.579 104.01
L519.448 128.985
L521.316 99.4733
L523.184 111.38
L525.053 94.5344
L526.921 89.9357
L528.79 136.698
L530.658 160.849
L532.526 95.0762
L534.395 94.0649
L536.263 102.481
L538.132 53.9112
L540 129.867
L540 129.867" style="fill:none;stroke:#ff0000;stroke-linecap:square;"/>
   </g>
   <g id="patch_3">
    <path d="
M540 180
L540 22.5" style="fill:none;stroke:#000000;stroke-linecap:square;stroke-linejoin:miter;"/>
   </g>
   <g id="patch_4">
    <path d="
M75 180
L540 180" style="fill:none;stroke:#000000;stroke-linecap:square;stroke-linejoin:miter;"/>
   </g>
   <g id="patch_5">
    <path d="
M75 180
L75 22.5" style="fill:none;stroke:#ff0000;stroke-linecap:square;stroke-linejoin:miter;"/>
   </g>
   <g id="matplotlib.axis_1">
    <g id="xtick_1">
     <g id="line2d_2">
      <path clip-path="url(#p12008f58a0)" d="
M108.348 180
L108.348 22.5" style="fill:none;stroke:#000000;stroke-dasharray:1.000000,3.000000;stroke-dashoffset:0.0;stroke-width:0.5;"/>
     </g>
     <g id="line2d_3">
      <defs>
       <path d="
M0 0
L0 4" id="m741efc42ff" style="stroke:#000000;stroke-width:0.5;"/>
      </defs>
      <g>
       <use style="stroke:#000000;stroke-width:0.5;" x="108.347748388" xlink:href="#m741efc42ff" y="180.0"/>
      </g>
     </g>
     <g id="line2d_4">
      <defs>
       <path d="
M0 0
L0 -4" id="m93b0483c22" style="stroke:#000000;stroke-width:0.5;"/>
      </defs>
      <g>
       <use style="stroke:#000000;stroke-width:0.5;" x="108.347748388" xlink:href="#m93b0483c22" y="22.5"/>
      </g>
     </g>
     <g id="text_1">
      <!-- 2015-02-03 -->
      <defs>
       <path d="
M19.1875 8.29688
L53.6094 8.29688
L53.6094 0
L7.32812 0
L7.32812 8.29688
Q12.9375 14.1094 22.625 23.8906
Q32.3281 33.6875 34.8125 36.5312
Q39.5469 41.8438 41.4219 45.5312
Q43.3125 49.2188 43.3125 52.7812
Q43.3125 58.5938 39.2344 62.25
Q35.1562 65.9219 28.6094 65.9219
Q23.9688 65.9219 18.8125 64.3125
Q13.6719 62.7031 7.8125 59.4219
L7.8125 69.3906
Q13.7656 71.7812 18.9375 73
Q24.125 74.2188 28.4219 74.2188
Q39.75 74.2188 46.4844 68.5469
Q53.2188 62.8906 53.2188 53.4219
Q53.2188 48.9219 51.5312 44.8906
Q49.8594 40.875 45.4062 35.4062
Q44.1875 33.9844 37.6406 27.2188
Q31.1094 20.4531 19.1875 8.29688" id="BitstreamVeraSans-Roman-32"/>
       <path d="
M40.5781 39.3125
Q47.6562 37.7969 51.625 33
Q55.6094 28.2188 55.6094 21.1875
Q55.6094 10.4062 48.1875 4.48438
Q40.7656 -1.42188 27.0938 -1.42188
Q22.5156 -1.42188 17.6562 -0.515625
Q12.7969 0.390625 7.625 2.20312
L7.625 11.7188
Q11.7188 9.32812 16.5938 8.10938
Q21.4844 6.89062 26.8125 6.89062
Q36.0781 6.89062 40.9375 10.5469
Q45.7969 14.2031 45.7969 21.1875
Q45.7969 27.6406 41.2812 31.2656
Q36.7656 34.9062 28.7188 34.9062
L20.2188 34.9062
L20.2188 43.0156
L29.1094 43.0156
Q36.375 43.0156 40.2344 45.9219
Q44.0938 48.8281 44.0938 54.2969
Q44.0938 59.9062 40.1094 62.9062
Q36.1406 65.9219 28.7188 65.9219
Q24.6562 65.9219 20.0156 65.0312
Q15.375 64.1562 9.8125 62.3125
L9.8125 71.0938
Q15.4375 72.6562 20.3438 73.4375
Q25.25 74.2188 29.5938 74.2188
Q40.8281 74.2188 47.3594 69.1094
Q53.9062 64.0156 53.9062 55.3281
Q53.9062 49.2656 50.4375 45.0938
Q46.9688 40.9219 40.5781 39.3125" id="BitstreamVeraSans-Roman-33"/>
       <path d="
M31.7812 66.4062
Q24.1719 66.4062 20.3281 58.9062
Q16.5 51.4219 16.5 36.375
Q16.5 21.3906 20.3281 13.8906
Q24.1719 6.39062 31.7812 6.39062
Q39.4531 6.39062 43.2812 13.8906
Q47.125 21.3906 47.125 36.375
Q47.125 51.4219 43.2812 58.9062
Q39.4531 66.4062 31.7812 66.4062
M31.7812 74.2188
Q44.0469 74.2188 50.5156 64.5156
Q56.9844 54.8281 56.9844 36.375
Q56.9844 17.9688 50.5156 8.26562
Q44.0469 -1.42188 31.7812 -1.42188
Q19.5312 -1.42188 13.0625 8.26562
Q6.59375 17.9688 6.59375 36.375
Q6.59375 54.8281 13.0625 64.5156
Q19.5312 74.2188 31.7812 74.2188" id="BitstreamVeraSans-Roman-30"/>
       <path d="
M12.4062 8.29688
L28.5156 8.29688
L28.5156 63.9219
L10.9844 60.4062
L10.9844 69.3906
L28.4219 72.9062
L38.2812 72.9062
L38.2812 8.29688
L54.3906 8.29688
L54.3906 0
L12.4062 0
z
" id="BitstreamVeraSans-Roman-31"/>
       <path d="
M10.7969 72.9062
L49.5156 72.9062
L49.5156 64.5938
L19.8281 64.5938
L19.8281 46.7344
Q21.9688 47.4688 24.1094 47.8281
Q26.2656 48.1875 28.4219 48.1875
Q40.625 48.1875 47.75 41.5
Q54.8906 34.8125 54.8906 23.3906
Q54.8906 11.625 47.5625 5.09375
Q40.2344 -1.42188 26.9062 -1.42188
Q22.3125 -1.42188 17.5469 -0.640625
Q12.7969 0.140625 7.71875 1.70312
L7.71875 11.625
Q12.1094 9.23438 16.7969 8.0625
Q21.4844 6.89062 26.7031 6.89062
Q35.1562 6.89062 40.0781 11.3281
Q45.0156 15.7656 45.0156 23.3906
Q45.0156 31 40.0781 35.4375
Q35.1562 39.8906 26.7031 39.8906
Q22.75 39.8906 18.8125 39.0156
Q14.8906 38.1406 10.7969 36.2812
z
" id="BitstreamVeraSans-Roman-35"/>
       <path d="
M4.89062 31.3906
L31.2031 31.3906
L31.2031 23.3906
L4.89062 23.3906
z
" id="BitstreamVeraSans-Roman-2d"/>
      </defs>
      <g transform="translate(48.2989760342 229.845277885)rotate(-30.0)scale(0.12 -0.12)">
       <use xlink:href="#BitstreamVeraSans-Roman-32"/>
       <use x="63.623046875" xlink:href="#BitstreamVeraSans-Roman-30"/>
       <use x="127.24609375" xlink:href="#BitstreamVeraSans-Roman-31"/>
       <use x="190.869140625" xlink:href="#BitstreamVeraSans-Roman-35"/>
       <use x="254.4921875" xlink:href="#BitstreamVeraSans-Roman-2d"/>
       <use x="290.576171875" xlink:href="#BitstreamVeraSans-Roman-30"/>
       <use x="354.19921875" xlink:href="#BitstreamVeraSans-Roman-32"/>
       <use x="417.822265625" xlink:href="#BitstreamVeraSans-Roman-2d"/>
       <use x="453.90625" xlink:href="#BitstreamVeraSans-Roman-30"/>
       <use x="517.529296875" xlink:href="#BitstreamVeraSans-Roman-33"/>
      </g>
     </g>
    </g>
    <g id="xtick_2">
     <g id="line2d_5">
      <path clip-path="url(#p12008f58a0)" d="
M158.369 180
L158.369 22.5" style="fill:none;stroke:#000000;stroke-dasharray:1.000000,3.000000;stroke-dashoffset:0.0;stroke-width:0.5;"/>
     </g>
     <g id="line2d_6">
      <g>
       <use style="stroke:#000000;stroke-width:0.5;" x="158.369370969" xlink:href="#m741efc42ff" y="180.0"/>
      </g>
     </g>
     <g id="line2d_7">
      <g>
       <use style="stroke:#000000;stroke-width:0.5;" x="158.369370969" xlink:href="#m93b0483c22" y="22.5"/>
      </g>
     </g>
     <g id="text_2">
      <!-- 2015-02-06 -->
      <defs>
       <path d="
M33.0156 40.375
Q26.375 40.375 22.4844 35.8281
Q18.6094 31.2969 18.6094 23.3906
Q18.6094 15.5312 22.4844 10.9531
Q26.375 6.39062 33.0156 6.39062
Q39.6562 6.39062 43.5312 10.9531
Q47.4062 15.5312 47.4062 23.3906
Q47.4062 31.2969 43.5312 35.8281
Q39.6562 40.375 33.0156 40.375
M52.5938 71.2969
L52.5938 62.3125
Q48.875 64.0625 45.0938 64.9844
Q41.3125 65.9219 37.5938 65.9219
Q27.8281 65.9219 22.6719 59.3281
Q17.5312 52.7344 16.7969 39.4062
Q19.6719 43.6562 24.0156 45.9219
Q28.375 48.1875 33.5938 48.1875
Q44.5781 48.1875 50.9531 41.5156
Q57.3281 34.8594 57.3281 23.3906
Q57.3281 12.1562 50.6875 5.35938
Q44.0469 -1.42188 33.0156 -1.42188
Q20.3594 -1.42188 13.6719 8.26562
Q6.98438 17.9688 6.98438 36.375
Q6.98438 53.6562 15.1875 63.9375
Q23.3906 74.2188 37.2031 74.2188
Q40.9219 74.2188 44.7031 73.4844
Q48.4844 72.75 52.5938 71.2969" id="BitstreamVeraSans-Roman-36"/>
      </defs>
      <g transform="translate(98.141980876 229.948402885)rotate(-30.0)scale(0.12 -0.12)">
       <use xlink:href="#BitstreamVeraSans-Roman-32"/>
       <use x="63.623046875" xlink:href="#BitstreamVeraSans-Roman-30"/>
       <use x="127.24609375" xlink:href="#BitstreamVeraSans-Roman-31"/>
       <use x="190.869140625" xlink:href="#BitstreamVeraSans-Roman-35"/>
       <use x="254.4921875" xlink:href="#BitstreamVeraSans-Roman-2d"/>
       <use x="290.576171875" xlink:href="#BitstreamVeraSans-Roman-30"/>
       <use x="354.19921875" xlink:href="#BitstreamVeraSans-Roman-32"/>
       <use x="417.822265625" xlink:href="#BitstreamVeraSans-Roman-2d"/>
       <use x="453.90625" xlink:href="#BitstreamVeraSans-Roman-30"/>
       <use x="517.529296875" xlink:href="#BitstreamVeraSans-Roman-36"/>
      </g>
     </g>
    </g>
    <g id="xtick_3">
     <g id="line2d_8">
      <path clip-path="url(#p12008f58a0)" d="
M208.391 180
L208.391 22.5" style="fill:none;stroke:#000000;stroke-dasharray:1.000000,3.000000;stroke-dashoffset:0.0;stroke-width:0.5;"/>
     </g>
     <g id="line2d_9">
      <g>
       <use style="stroke:#000000;stroke-width:0.5;" x="208.39099355" xlink:href="#m741efc42ff" y="180.0"/>
      </g>
     </g>
     <g id="line2d_10">
      <g>
       <use style="stroke:#000000;stroke-width:0.5;" x="208.39099355" xlink:href="#m93b0483c22" y="22.5"/>
      </g>
     </g>
     <g id="text_3">
      <!-- 2015-02-09 -->
      <defs>
       <path d="
M10.9844 1.51562
L10.9844 10.5
Q14.7031 8.73438 18.5 7.8125
Q22.3125 6.89062 25.9844 6.89062
Q35.75 6.89062 40.8906 13.4531
Q46.0469 20.0156 46.7812 33.4062
Q43.9531 29.2031 39.5938 26.9531
Q35.25 24.7031 29.9844 24.7031
Q19.0469 24.7031 12.6719 31.3125
Q6.29688 37.9375 6.29688 49.4219
Q6.29688 60.6406 12.9375 67.4219
Q19.5781 74.2188 30.6094 74.2188
Q43.2656 74.2188 49.9219 64.5156
Q56.5938 54.8281 56.5938 36.375
Q56.5938 19.1406 48.4062 8.85938
Q40.2344 -1.42188 26.4219 -1.42188
Q22.7031 -1.42188 18.8906 -0.6875
Q15.0938 0.046875 10.9844 1.51562
M30.6094 32.4219
Q37.25 32.4219 41.125 36.9531
Q45.0156 41.5 45.0156 49.4219
Q45.0156 57.2812 41.125 61.8438
Q37.25 66.4062 30.6094 66.4062
Q23.9688 66.4062 20.0938 61.8438
Q16.2188 57.2812 16.2188 49.4219
Q16.2188 41.5 20.0938 36.9531
Q23.9688 32.4219 30.6094 32.4219" id="BitstreamVeraSans-Roman-39"/>
      </defs>
      <g transform="translate(148.239921946 229.904340385)rotate(-30.0)scale(0.12 -0.12)">
       <use xlink:href="#BitstreamVeraSans-Roman-32"/>
       <use x="63.623046875" xlink:href="#BitstreamVeraSans-Roman-30"/>
       <use x="127.24609375" xlink:href="#BitstreamVeraSans-Roman-31"/>
       <use x="190.869140625" xlink:href="#BitstreamVeraSans-Roman-35"/>
       <use x="254.4921875" xlink:href="#BitstreamVeraSans-Roman-2d"/>
       <use x="290.576171875" xlink:href="#BitstreamVeraSans-Roman-30"/>
       <use x="354.19921875" xlink:href="#BitstreamVeraSans-Roman-32"/>
       <use x="417.822265625" xlink:href="#BitstreamVeraSans-Roman-2d"/>
       <use x="453.90625" xlink:href="#BitstreamVeraSans-Roman-30"/>
       <use x="517.529296875" xlink:href="#BitstreamVeraSans-Roman-39"/>
      </g>
     </g>
    </g>
    <g id="xtick_4">
     <g id="line2d_11">
      <path clip-path="url(#p12008f58a0)" d="
M258.413 180
L258.413 22.5" style="fill:none;stroke:#000000;stroke-dasharray:1.000000,3.000000;stroke-dashoffset:0.0;stroke-width:0.5;"/>
     </g>
     <g id="line2d_12">
      <g>
       <use style="stroke:#000000;stroke-width:0.5;" x="258.412616134" xlink:href="#m741efc42ff" y="180.0"/>
      </g>
     </g>
     <g id="line2d_13">
      <g>
       <use style="stroke:#000000;stroke-width:0.5;" x="258.412616134" xlink:href="#m93b0483c22" y="22.5"/>
      </g>
     </g>
     <g id="text_4">
      <!-- 2015-02-12 -->
      <g transform="translate(198.571689877 229.725277885)rotate(-30.0)scale(0.12 -0.12)">
       <use xlink:href="#BitstreamVeraSans-Roman-32"/>
       <use x="63.623046875" xlink:href="#BitstreamVeraSans-Roman-30"/>
       <use x="127.24609375" xlink:href="#BitstreamVeraSans-Roman-31"/>
       <use x="190.869140625" xlink:href="#BitstreamVeraSans-Roman-35"/>
       <use x="254.4921875" xlink:href="#BitstreamVeraSans-Roman-2d"/>
       <use x="290.576171875" xlink:href="#BitstreamVeraSans-Roman-30"/>
       <use x="354.19921875" xlink:href="#BitstreamVeraSans-Roman-32"/>
       <use x="417.822265625" xlink:href="#BitstreamVeraSans-Roman-2d"/>
       <use x="453.90625" xlink:href="#BitstreamVeraSans-Roman-31"/>
       <use x="517.529296875" xlink:href="#BitstreamVeraSans-Roman-32"/>
      </g>
     </g>
    </g>
    <g id="xtick_5">
     <g id="line2d_14">
      <path clip-path="url(#p12008f58a0)" d="
M308.434 180
L308.434 22.5" style="fill:none;stroke:#000000;stroke-dasharray:1.000000,3.000000;stroke-dashoffset:0.0;stroke-width:0.5;"/>
     </g>
     <g id="line2d_15">
      <g>
       <use style="stroke:#000000;stroke-width:0.5;" x="308.434238715" xlink:href="#m741efc42ff" y="180.0"/>
      </g>
     </g>
     <g id="line2d_16">
      <g>
       <use style="stroke:#000000;stroke-width:0.5;" x="308.434238715" xlink:href="#m93b0483c22" y="22.5"/>
      </g>
     </g>
     <g id="text_5">
      <!-- 2015-02-15 -->
      <g transform="translate(248.460161053 229.802152885)rotate(-30.0)scale(0.12 -0.12)">
       <use xlink:href="#BitstreamVeraSans-Roman-32"/>
       <use x="63.623046875" xlink:href="#BitstreamVeraSans-Roman-30"/>
       <use x="127.24609375" xlink:href="#BitstreamVeraSans-Roman-31"/>
       <use x="190.869140625" xlink:href="#BitstreamVeraSans-Roman-35"/>
       <use x="254.4921875" xlink:href="#BitstreamVeraSans-Roman-2d"/>
       <use x="290.576171875" xlink:href="#BitstreamVeraSans-Roman-30"/>
       <use x="354.19921875" xlink:href="#BitstreamVeraSans-Roman-32"/>
       <use x="417.822265625" xlink:href="#BitstreamVeraSans-Roman-2d"/>
       <use x="453.90625" xlink:href="#BitstreamVeraSans-Roman-31"/>
       <use x="517.529296875" xlink:href="#BitstreamVeraSans-Roman-35"/>
      </g>
     </g>
    </g>
    <g id="xtick_6">
     <g id="line2d_17">
      <path clip-path="url(#p12008f58a0)" d="
M358.456 180
L358.456 22.5" style="fill:none;stroke:#000000;stroke-dasharray:1.000000,3.000000;stroke-dashoffset:0.0;stroke-width:0.5;"/>
     </g>
     <g id="line2d_18">
      <g>
       <use style="stroke:#000000;stroke-width:0.5;" x="358.455861297" xlink:href="#m741efc42ff" y="180.0"/>
      </g>
     </g>
     <g id="line2d_19">
      <g>
       <use style="stroke:#000000;stroke-width:0.5;" x="358.455861297" xlink:href="#m93b0483c22" y="22.5"/>
      </g>
     </g>
     <g id="text_6">
      <!-- 2015-02-18 -->
      <defs>
       <path d="
M31.7812 34.625
Q24.75 34.625 20.7188 30.8594
Q16.7031 27.0938 16.7031 20.5156
Q16.7031 13.9219 20.7188 10.1562
Q24.75 6.39062 31.7812 6.39062
Q38.8125 6.39062 42.8594 10.1719
Q46.9219 13.9688 46.9219 20.5156
Q46.9219 27.0938 42.8906 30.8594
Q38.875 34.625 31.7812 34.625
M21.9219 38.8125
Q15.5781 40.375 12.0312 44.7188
Q8.5 49.0781 8.5 55.3281
Q8.5 64.0625 14.7188 69.1406
Q20.9531 74.2188 31.7812 74.2188
Q42.6719 74.2188 48.875 69.1406
Q55.0781 64.0625 55.0781 55.3281
Q55.0781 49.0781 51.5312 44.7188
Q48 40.375 41.7031 38.8125
Q48.8281 37.1562 52.7969 32.3125
Q56.7812 27.4844 56.7812 20.5156
Q56.7812 9.90625 50.3125 4.23438
Q43.8438 -1.42188 31.7812 -1.42188
Q19.7344 -1.42188 13.25 4.23438
Q6.78125 9.90625 6.78125 20.5156
Q6.78125 27.4844 10.7812 32.3125
Q14.7969 37.1562 21.9219 38.8125
M18.3125 54.3906
Q18.3125 48.7344 21.8438 45.5625
Q25.3906 42.3906 31.7812 42.3906
Q38.1406 42.3906 41.7188 45.5625
Q45.3125 48.7344 45.3125 54.3906
Q45.3125 60.0625 41.7188 63.2344
Q38.1406 66.4062 31.7812 66.4062
Q25.3906 66.4062 21.8438 63.2344
Q18.3125 60.0625 18.3125 54.3906" id="BitstreamVeraSans-Roman-38"/>
      </defs>
      <g transform="translate(298.285304121 229.915590385)rotate(-30.0)scale(0.12 -0.12)">
       <use xlink:href="#BitstreamVeraSans-Roman-32"/>
       <use x="63.623046875" xlink:href="#BitstreamVeraSans-Roman-30"/>
       <use x="127.24609375" xlink:href="#BitstreamVeraSans-Roman-31"/>
       <use x="190.869140625" xlink:href="#BitstreamVeraSans-Roman-35"/>
       <use x="254.4921875" xlink:href="#BitstreamVeraSans-Roman-2d"/>
       <use x="290.576171875" xlink:href="#BitstreamVeraSans-Roman-30"/>
       <use x="354.19921875" xlink:href="#BitstreamVeraSans-Roman-32"/>
       <use x="417.822265625" xlink:href="#BitstreamVeraSans-Roman-2d"/>
       <use x="453.90625" xlink:href="#BitstreamVeraSans-Roman-31"/>
       <use x="517.529296875" xlink:href="#BitstreamVeraSans-Roman-38"/>
      </g>
     </g>
    </g>
    <g id="xtick_7">
     <g id="line2d_20">
      <path clip-path="url(#p12008f58a0)" d="
M408.477 180
L408.477 22.5" style="fill:none;stroke:#000000;stroke-dasharray:1.000000,3.000000;stroke-dashoffset:0.0;stroke-width:0.5;"/>
     </g>
     <g id="line2d_21">
      <g>
       <use style="stroke:#000000;stroke-width:0.5;" x="408.477483878" xlink:href="#m741efc42ff" y="180.0"/>
      </g>
     </g>
     <g id="line2d_22">
      <g>
       <use style="stroke:#000000;stroke-width:0.5;" x="408.477483878" xlink:href="#m93b0483c22" y="22.5"/>
      </g>
     </g>
     <g id="text_7">
      <!-- 2015-02-21 -->
      <g transform="translate(348.55536774 229.772152885)rotate(-30.0)scale(0.12 -0.12)">
       <use xlink:href="#BitstreamVeraSans-Roman-32"/>
       <use x="63.623046875" xlink:href="#BitstreamVeraSans-Roman-30"/>
       <use x="127.24609375" xlink:href="#BitstreamVeraSans-Roman-31"/>
       <use x="190.869140625" xlink:href="#BitstreamVeraSans-Roman-35"/>
       <use x="254.4921875" xlink:href="#BitstreamVeraSans-Roman-2d"/>
       <use x="290.576171875" xlink:href="#BitstreamVeraSans-Roman-30"/>
       <use x="354.19921875" xlink:href="#BitstreamVeraSans-Roman-32"/>
       <use x="417.822265625" xlink:href="#BitstreamVeraSans-Roman-2d"/>
       <use x="453.90625" xlink:href="#BitstreamVeraSans-Roman-32"/>
       <use x="517.529296875" xlink:href="#BitstreamVeraSans-Roman-31"/>
      </g>
     </g>
    </g>
    <g id="xtick_8">
     <g id="line2d_23">
      <path clip-path="url(#p12008f58a0)" d="
M458.499 180
L458.499 22.5" style="fill:none;stroke:#000000;stroke-dasharray:1.000000,3.000000;stroke-dashoffset:0.0;stroke-width:0.5;"/>
     </g>
     <g id="line2d_24">
      <g>
       <use style="stroke:#000000;stroke-width:0.5;" x="458.499106459" xlink:href="#m741efc42ff" y="180.0"/>
      </g>
     </g>
     <g id="line2d_25">
      <g>
       <use style="stroke:#000000;stroke-width:0.5;" x="458.499106459" xlink:href="#m93b0483c22" y="22.5"/>
      </g>
     </g>
     <g id="text_8">
      <!-- 2015-02-24 -->
      <defs>
       <path d="
M37.7969 64.3125
L12.8906 25.3906
L37.7969 25.3906
z

M35.2031 72.9062
L47.6094 72.9062
L47.6094 25.3906
L58.0156 25.3906
L58.0156 17.1875
L47.6094 17.1875
L47.6094 0
L37.7969 0
L37.7969 17.1875
L4.89062 17.1875
L4.89062 26.7031
z
" id="BitstreamVeraSans-Roman-34"/>
      </defs>
      <g transform="translate(398.200269271 229.989652885)rotate(-30.0)scale(0.12 -0.12)">
       <use xlink:href="#BitstreamVeraSans-Roman-32"/>
       <use x="63.623046875" xlink:href="#BitstreamVeraSans-Roman-30"/>
       <use x="127.24609375" xlink:href="#BitstreamVeraSans-Roman-31"/>
       <use x="190.869140625" xlink:href="#BitstreamVeraSans-Roman-35"/>
       <use x="254.4921875" xlink:href="#BitstreamVeraSans-Roman-2d"/>
       <use x="290.576171875" xlink:href="#BitstreamVeraSans-Roman-30"/>
       <use x="354.19921875" xlink:href="#BitstreamVeraSans-Roman-32"/>
       <use x="417.822265625" xlink:href="#BitstreamVeraSans-Roman-2d"/>
       <use x="453.90625" xlink:href="#BitstreamVeraSans-Roman-32"/>
       <use x="517.529296875" xlink:href="#BitstreamVeraSans-Roman-34"/>
      </g>
     </g>
    </g>
    <g id="xtick_9">
     <g id="line2d_26">
      <path clip-path="url(#p12008f58a0)" d="
M508.521 180
L508.521 22.5" style="fill:none;stroke:#000000;stroke-dasharray:1.000000,3.000000;stroke-dashoffset:0.0;stroke-width:0.5;"/>
     </g>
     <g id="line2d_27">
      <g>
       <use style="stroke:#000000;stroke-width:0.5;" x="508.520729041" xlink:href="#m741efc42ff" y="180.0"/>
      </g>
     </g>
     <g id="line2d_28">
      <g>
       <use style="stroke:#000000;stroke-width:0.5;" x="508.520729041" xlink:href="#m93b0483c22" y="22.5"/>
      </g>
     </g>
     <g id="text_9">
      <!-- 2015-02-27 -->
      <defs>
       <path d="
M8.20312 72.9062
L55.0781 72.9062
L55.0781 68.7031
L28.6094 0
L18.3125 0
L43.2188 64.5938
L8.20312 64.5938
z
" id="BitstreamVeraSans-Roman-37"/>
      </defs>
      <g transform="translate(448.527165807 229.813402885)rotate(-30.0)scale(0.12 -0.12)">
       <use xlink:href="#BitstreamVeraSans-Roman-32"/>
       <use x="63.623046875" xlink:href="#BitstreamVeraSans-Roman-30"/>
       <use x="127.24609375" xlink:href="#BitstreamVeraSans-Roman-31"/>
       <use x="190.869140625" xlink:href="#BitstreamVeraSans-Roman-35"/>
       <use x="254.4921875" xlink:href="#BitstreamVeraSans-Roman-2d"/>
       <use x="290.576171875" xlink:href="#BitstreamVeraSans-Roman-30"/>
       <use x="354.19921875" xlink:href="#BitstreamVeraSans-Roman-32"/>
       <use x="417.822265625" xlink:href="#BitstreamVeraSans-Roman-2d"/>
       <use x="453.90625" xlink:href="#BitstreamVeraSans-Roman-32"/>
       <use x="517.529296875" xlink:href="#BitstreamVeraSans-Roman-37"/>
      </g>
     </g>
    </g>
   </g>
   <g id="matplotlib.axis_2">
    <g id="ytick_1">
     <g id="line2d_29">
      <path clip-path="url(#p12008f58a0)" d="
M75 180
L540 180" style="fill:none;stroke:#000000;stroke-dasharray:1.000000,3.000000;stroke-dashoffset:0.0;stroke-width:0.5;"/>
     </g>
     <g id="line2d_30">
      <defs>
       <path d="
M0 0
L-4 0" id="m04b4e91c36" style="stroke:#ff0000;stroke-width:2;"/>
      </defs>
      <g>
       <use style="fill:#ff0000;stroke:#ff0000;stroke-width:2;" x="75.0" xlink:href="#m04b4e91c36" y="180.0"/>
      </g>
     </g>
     <g id="text_10">
      <!-- −10 -->
      <defs>
       <path d="
M10.5938 37.1094
L73.1875 37.1094
L73.1875 25.5938
L10.5938 25.5938
z
" id="BitstreamVeraSans-Bold-2212"/>
       <path d="
M11.7188 12.9844
L28.3281 12.9844
L28.3281 60.1094
L11.2812 56.5938
L11.2812 69.3906
L28.2188 72.9062
L46.0938 72.9062
L46.0938 12.9844
L62.7031 12.9844
L62.7031 0
L11.7188 0
z
" id="BitstreamVeraSans-Bold-31"/>
       <path d="
M46 36.5312
Q46 50.2031 43.4375 55.7812
Q40.875 61.375 34.8125 61.375
Q28.7656 61.375 26.1719 55.7812
Q23.5781 50.2031 23.5781 36.5312
Q23.5781 22.7031 26.1719 17.0312
Q28.7656 11.375 34.8125 11.375
Q40.8281 11.375 43.4062 17.0312
Q46 22.7031 46 36.5312
M64.7969 36.375
Q64.7969 18.2656 56.9844 8.42188
Q49.1719 -1.42188 34.8125 -1.42188
Q20.4062 -1.42188 12.5938 8.42188
Q4.78125 18.2656 4.78125 36.375
Q4.78125 54.5469 12.5938 64.375
Q20.4062 74.2188 34.8125 74.2188
Q49.1719 74.2188 56.9844 64.375
Q64.7969 54.5469 64.7969 36.375" id="BitstreamVeraSans-Bold-30"/>
      </defs>
      <g style="fill:#ff0000;" transform="translate(42.090625 183.31125)scale(0.12 -0.12)">
       <use xlink:href="#BitstreamVeraSans-Bold-2212"/>
       <use x="83.7890625" xlink:href="#BitstreamVeraSans-Bold-31"/>
       <use x="153.369140625" xlink:href="#BitstreamVeraSans-Bold-30"/>
      </g>
     </g>
    </g>
    <g id="ytick_2">
     <g id="line2d_31">
      <path clip-path="url(#p12008f58a0)" d="
M75 157.5
L540 157.5" style="fill:none;stroke:#000000;stroke-dasharray:1.000000,3.000000;stroke-dashoffset:0.0;stroke-width:0.5;"/>
     </g>
     <g id="line2d_32">
      <g>
       <use style="fill:#ff0000;stroke:#ff0000;stroke-width:2;" x="75.0" xlink:href="#m04b4e91c36" y="157.5"/>
      </g>
     </g>
     <g id="text_11">
      <!-- −5 -->
      <defs>
       <path d="
M10.5938 72.9062
L57.3281 72.9062
L57.3281 59.0781
L25.5938 59.0781
L25.5938 47.7969
Q27.7344 48.3906 29.9062 48.7031
Q32.0781 49.0312 34.4219 49.0312
Q47.75 49.0312 55.1719 42.3594
Q62.5938 35.6875 62.5938 23.7812
Q62.5938 11.9688 54.5156 5.26562
Q46.4375 -1.42188 32.0781 -1.42188
Q25.875 -1.42188 19.7969 -0.21875
Q13.7188 0.984375 7.71875 3.42188
L7.71875 18.2188
Q13.6719 14.7969 19.0156 13.0781
Q24.3594 11.375 29.1094 11.375
Q35.9375 11.375 39.8594 14.7188
Q43.7969 18.0625 43.7969 23.7812
Q43.7969 29.5469 39.8594 32.8594
Q35.9375 36.1875 29.1094 36.1875
Q25.0469 36.1875 20.4531 35.125
Q15.875 34.0781 10.5938 31.8906
z
" id="BitstreamVeraSans-Bold-35"/>
      </defs>
      <g style="fill:#ff0000;" transform="translate(50.704375 160.81125)scale(0.12 -0.12)">
       <use xlink:href="#BitstreamVeraSans-Bold-2212"/>
       <use x="83.7890625" xlink:href="#BitstreamVeraSans-Bold-35"/>
      </g>
     </g>
    </g>
    <g id="ytick_3">
     <g id="line2d_33">
      <path clip-path="url(#p12008f58a0)" d="
M75 135
L540 135" style="fill:none;stroke:#000000;stroke-dasharray:1.000000,3.000000;stroke-dashoffset:0.0;stroke-width:0.5;"/>
     </g>
     <g id="line2d_34">
      <g>
       <use style="fill:#ff0000;stroke:#ff0000;stroke-width:2;" x="75.0" xlink:href="#m04b4e91c36" y="135.0"/>
      </g>
     </g>
     <g id="text_12">
      <!-- 0 -->
      <g style="fill:#ff0000;" transform="translate(59.798125 138.31125)scale(0.12 -0.12)">
       <use xlink:href="#BitstreamVeraSans-Bold-30"/>
      </g>
     </g>
    </g>
    <g id="ytick_4">
     <g id="line2d_35">
      <path clip-path="url(#p12008f58a0)" d="
M75 112.5
L540 112.5" style="fill:none;stroke:#000000;stroke-dasharray:1.000000,3.000000;stroke-dashoffset:0.0;stroke-width:0.5;"/>
     </g>
     <g id="line2d_36">
      <g>
       <use style="fill:#ff0000;stroke:#ff0000;stroke-width:2;" x="75.0" xlink:href="#m04b4e91c36" y="112.5"/>
      </g>
     </g>
     <g id="text_13">
      <!-- 5 -->
      <g style="fill:#ff0000;" transform="translate(60.415 115.81125)scale(0.12 -0.12)">
       <use xlink:href="#BitstreamVeraSans-Bold-35"/>
      </g>
     </g>
    </g>
    <g id="ytick_5">
     <g id="line2d_37">
      <path clip-path="url(#p12008f58a0)" d="
M75 90
L540 90" style="fill:none;stroke:#000000;stroke-dasharray:1.000000,3.000000;stroke-dashoffset:0.0;stroke-width:0.5;"/>
     </g>
     <g id="line2d_38">
      <g>
       <use style="fill:#ff0000;stroke:#ff0000;stroke-width:2;" x="75.0" xlink:href="#m04b4e91c36" y="90.0"/>
      </g>
     </g>
     <g id="text_14">
      <!-- 10 -->
      <g style="fill:#ff0000;" transform="translate(52.22875 93.31125)scale(0.12 -0.12)">
       <use xlink:href="#BitstreamVeraSans-Bold-31"/>
       <use x="69.580078125" xlink:href="#BitstreamVeraSans-Bold-30"/>
      </g>
     </g>
    </g>
    <g id="ytick_6">
     <g id="line2d_39">
      <path clip-path="url(#p12008f58a0)" d="
M75 67.5
L540 67.5" style="fill:none;stroke:#000000;stroke-dasharray:1.000000,3.000000;stroke-dashoffset:0.0;stroke-width:0.5;"/>
     </g>
     <g id="line2d_40">
      <g>
       <use style="fill:#ff0000;stroke:#ff0000;stroke-width:2;" x="75.0" xlink:href="#m04b4e91c36" y="67.5"/>
      </g>
     </g>
     <g id="text_15">
      <!-- 15 -->
      <g style="fill:#ff0000;" transform="translate(52.493125 70.81125)scale(0.12 -0.12)">
       <use xlink:href="#BitstreamVeraSans-Bold-31"/>
       <use x="69.580078125" xlink:href="#BitstreamVeraSans-Bold-35"/>
      </g>
     </g>
    </g>
    <g id="ytick_7">
     <g id="line2d_41">
      <path clip-path="url(#p12008f58a0)" d="
M75 45
L540 45" style="fill:none;stroke:#000000;stroke-dasharray:1.000000,3.000000;stroke-dashoffset:0.0;stroke-width:0.5;"/>
     </g>
     <g id="line2d_42">
      <g>
       <use style="fill:#ff0000;stroke:#ff0000;stroke-width:2;" x="75.0" xlink:href="#m04b4e91c36" y="45.0"/>
      </g>
     </g>
     <g id="text_16">
      <!-- 20 -->
      <defs>
       <path d="
M28.8125 13.8125
L60.8906 13.8125
L60.8906 0
L7.90625 0
L7.90625 13.8125
L34.5156 37.3125
Q38.0938 40.5312 39.7969 43.6094
Q41.5 46.6875 41.5 50
Q41.5 55.125 38.0625 58.25
Q34.625 61.375 28.9062 61.375
Q24.5156 61.375 19.2812 59.5
Q14.0625 57.625 8.10938 53.9062
L8.10938 69.9219
Q14.4531 72.0156 20.6562 73.1094
Q26.8594 74.2188 32.8125 74.2188
Q45.9062 74.2188 53.1562 68.4531
Q60.4062 62.7031 60.4062 52.3906
Q60.4062 46.4375 57.3281 41.2812
Q54.25 36.1406 44.3906 27.4844
z
" id="BitstreamVeraSans-Bold-32"/>
      </defs>
      <g style="fill:#ff0000;" transform="translate(51.82375 48.31125)scale(0.12 -0.12)">
       <use xlink:href="#BitstreamVeraSans-Bold-32"/>
       <use x="69.580078125" xlink:href="#BitstreamVeraSans-Bold-30"/>
      </g>
     </g>
    </g>
    <g id="ytick_8">
     <g id="line2d_43">
      <path clip-path="url(#p12008f58a0)" d="
M75 22.5
L540 22.5" style="fill:none;stroke:#000000;stroke-dasharray:1.000000,3.000000;stroke-dashoffset:0.0;stroke-width:0.5;"/>
     </g>
     <g id="line2d_44">
      <g>
       <use style="fill:#ff0000;stroke:#ff0000;stroke-width:2;" x="75.0" xlink:href="#m04b4e91c36" y="22.5"/>
      </g>
     </g>
     <g id="text_17">
      <!-- 25 -->
      <g style="fill:#ff0000;" transform="translate(52.088125 25.81125)scale(0.12 -0.12)">
       <use xlink:href="#BitstreamVeraSans-Bold-32"/>
       <use x="69.580078125" xlink:href="#BitstreamVeraSans-Bold-35"/>
      </g>
     </g>
    </g>
    <g id="text_18">
     <!-- Temperature -->
     <defs>
      <path d="
M75.4375 1.65625
Q75.4375 1.17188 75.1406 0.796875
Q74.8594 0.4375 74.1719 0.1875
Q73.4844 -0.046875 72.3125 -0.171875
Q71.1406 -0.296875 69.3438 -0.296875
Q67.4844 -0.296875 66.3125 -0.171875
Q65.1406 -0.046875 64.4219 0.1875
Q63.7188 0.4375 63.4531 0.796875
Q63.1875 1.17188 63.1875 1.65625
L63.1875 27.4844
Q63.1875 29.6875 62.7656 31.4844
Q62.3594 33.2969 61.5 34.5938
Q60.6406 35.8906 59.3438 36.5938
Q58.0625 37.3125 56.25 37.3125
Q54.0469 37.3125 51.7969 35.5938
Q49.5625 33.8906 46.9219 30.6094
L46.9219 1.65625
Q46.9219 1.17188 46.625 0.796875
Q46.3438 0.4375 45.625 0.1875
Q44.9219 -0.046875 43.75 -0.171875
Q42.5781 -0.296875 40.8281 -0.296875
Q39.0156 -0.296875 37.8438 -0.171875
Q36.6719 -0.046875 35.9531 0.1875
Q35.25 0.4375 34.9531 0.796875
Q34.6719 1.17188 34.6719 1.65625
L34.6719 27.4844
Q34.6719 29.6875 34.25 31.4844
Q33.8438 33.2969 33 34.5938
Q32.1719 35.8906 30.8594 36.5938
Q29.5469 37.3125 27.7812 37.3125
Q25.5312 37.3125 23.2812 35.5938
Q21.0469 33.8906 18.4531 30.6094
L18.4531 1.65625
Q18.4531 1.17188 18.1562 0.796875
Q17.875 0.4375 17.1562 0.1875
Q16.4531 -0.046875 15.2812 -0.171875
Q14.1094 -0.296875 12.3125 -0.296875
Q10.5 -0.296875 9.32812 -0.171875
Q8.15625 -0.046875 7.4375 0.1875
Q6.73438 0.4375 6.4375 0.796875
Q6.15625 1.17188 6.15625 1.65625
L6.15625 45.2188
Q6.15625 45.7031 6.39062 46.0625
Q6.64062 46.4375 7.26562 46.6719
Q7.90625 46.9219 8.90625 47.0469
Q9.90625 47.1719 11.4219 47.1719
Q12.9844 47.1719 14.0156 47.0469
Q15.0469 46.9219 15.5938 46.6719
Q16.1562 46.4375 16.4062 46.0625
Q16.6562 45.7031 16.6562 45.2188
L16.6562 40.1875
Q20.2656 44.0938 23.8438 46.0469
Q27.4375 48 31.3438 48
Q34.0312 48 36.1719 47.4375
Q38.3281 46.875 40.0156 45.8281
Q41.7031 44.7812 42.9219 43.3125
Q44.1406 41.8438 44.9688 40.0469
Q46.9219 42.1406 48.7969 43.6562
Q50.6875 45.1719 52.5156 46.125
Q54.3438 47.0781 56.1719 47.5312
Q58.0156 48 59.9062 48
Q64.2656 48 67.2344 46.5312
Q70.2188 45.0625 72.0469 42.5469
Q73.875 40.0469 74.6562 36.6719
Q75.4375 33.2969 75.4375 29.5469
z
" id="Calibri-Bold-6d"/>
      <path d="
M46.3906 24.7031
Q46.3906 22.4688 45.3906 21.3906
Q44.3906 20.3125 42.625 20.3125
L16.1094 20.3125
Q16.1094 17.5312 16.7656 15.25
Q17.4375 12.9844 18.875 11.3906
Q20.3125 9.8125 22.5781 8.98438
Q24.8594 8.15625 28.0312 8.15625
Q31.25 8.15625 33.6875 8.60938
Q36.1406 9.07812 37.9219 9.64062
Q39.7031 10.2031 40.875 10.6719
Q42.0469 11.1406 42.7812 11.1406
Q43.2188 11.1406 43.5 10.9688
Q43.7969 10.7969 43.9844 10.3438
Q44.1875 9.90625 44.2656 9.09375
Q44.3438 8.29688 44.3438 7.07812
Q44.3438 6 44.2812 5.25
Q44.2344 4.5 44.1406 3.95312
Q44.0469 3.42188 43.8438 3.04688
Q43.6562 2.6875 43.3281 2.34375
Q43.0156 2 41.5938 1.40625
Q40.1875 0.828125 37.9844 0.265625
Q35.7969 -0.296875 32.9531 -0.703125
Q30.125 -1.125 26.9062 -1.125
Q21.0938 -1.125 16.7188 0.34375
Q12.3594 1.8125 9.42188 4.78125
Q6.5 7.76562 5.04688 12.2969
Q3.60938 16.8438 3.60938 22.9531
Q3.60938 28.7656 5.125 33.4219
Q6.64062 38.0938 9.51562 41.3281
Q12.4062 44.5781 16.5312 46.2812
Q20.6562 48 25.8281 48
Q31.2969 48 35.1719 46.3906
Q39.0625 44.7812 41.5469 41.9219
Q44.0469 39.0625 45.2188 35.1562
Q46.3906 31.25 46.3906 26.6562
z

M34.4688 28.2188
Q34.625 33.4062 32.3906 36.3594
Q30.1719 39.3125 25.5312 39.3125
Q23.1875 39.3125 21.4531 38.4219
Q19.7344 37.5469 18.5781 36.0625
Q17.4375 34.5781 16.8281 32.5469
Q16.2188 30.5156 16.1094 28.2188
z
" id="Calibri-Bold-65"/>
      <path d="
M47.4688 1.65625
Q47.4688 1.17188 47.2188 0.796875
Q46.9688 0.4375 46.3594 0.1875
Q45.75 -0.046875 44.75 -0.171875
Q43.75 -0.296875 42.2344 -0.296875
Q40.625 -0.296875 39.625 -0.171875
Q38.625 -0.046875 38.0312 0.1875
Q37.4531 0.4375 37.2031 0.796875
Q36.9688 1.17188 36.9688 1.65625
L36.9688 6.6875
Q33.3438 2.78125 29.6094 0.828125
Q25.875 -1.125 21.875 -1.125
Q17.3906 -1.125 14.3281 0.34375
Q11.2812 1.8125 9.39062 4.34375
Q7.51562 6.89062 6.70312 10.2344
Q5.90625 13.5781 5.90625 18.5625
L5.90625 45.2188
Q5.90625 45.7031 6.17188 46.0625
Q6.45312 46.4375 7.15625 46.6719
Q7.85938 46.9219 9.04688 47.0469
Q10.25 47.1719 12.0156 47.1719
Q13.8125 47.1719 14.9844 47.0469
Q16.1562 46.9219 16.8594 46.6719
Q17.5781 46.4375 17.875 46.0625
Q18.1719 45.7031 18.1719 45.2188
L18.1719 20.6094
Q18.1719 17.1875 18.6094 15.375
Q19.0469 13.5781 19.9375 12.2812
Q20.8438 10.9844 22.2344 10.2812
Q23.6406 9.57812 25.4844 9.57812
Q27.8281 9.57812 30.1875 11.2812
Q32.5625 12.9844 35.25 16.2656
L35.25 45.2188
Q35.25 45.7031 35.5156 46.0625
Q35.7969 46.4375 36.5 46.6719
Q37.2031 46.9219 38.375 47.0469
Q39.5469 47.1719 41.3594 47.1719
Q43.1719 47.1719 44.3438 47.0469
Q45.5156 46.9219 46.1875 46.6719
Q46.875 46.4375 47.1719 46.0625
Q47.4688 45.7031 47.4688 45.2188
z
" id="Calibri-Bold-75"/>
      <path d="
M31.9375 5.95312
Q31.9375 3.8125 31.6562 2.65625
Q31.3906 1.51562 30.9531 1.04688
Q30.5156 0.59375 29.6562 0.21875
Q28.8125 -0.140625 27.6562 -0.40625
Q26.5156 -0.6875 25.1719 -0.828125
Q23.8281 -0.984375 22.4688 -0.984375
Q18.7969 -0.984375 16.1094 -0.046875
Q13.4219 0.875 11.6562 2.79688
Q9.90625 4.73438 9.07812 7.65625
Q8.25 10.5938 8.25 14.5938
L8.25 36.9219
L3.03125 36.9219
Q2.09375 36.9219 1.60938 38.0625
Q1.125 39.2031 1.125 41.8906
Q1.125 43.3125 1.25 44.2812
Q1.375 45.2656 1.60938 45.8281
Q1.85938 46.3906 2.21875 46.625
Q2.59375 46.875 3.07812 46.875
L8.25 46.875
L8.25 56.5938
Q8.25 57.0781 8.51562 57.4688
Q8.79688 57.8594 9.5 58.125
Q10.2031 58.4062 11.3906 58.5156
Q12.5938 58.6406 14.3594 58.6406
Q16.1562 58.6406 17.3594 58.5156
Q18.5625 58.4062 19.2344 58.125
Q19.9219 57.8594 20.2188 57.4688
Q20.5156 57.0781 20.5156 56.5938
L20.5156 46.875
L29.9844 46.875
Q30.4688 46.875 30.8281 46.625
Q31.2031 46.3906 31.4375 45.8281
Q31.6875 45.2656 31.8125 44.2812
Q31.9375 43.3125 31.9375 41.8906
Q31.9375 39.2031 31.4375 38.0625
Q30.9531 36.9219 30.0312 36.9219
L20.5156 36.9219
L20.5156 16.4531
Q20.5156 12.8906 21.625 11.1094
Q22.75 9.32812 25.6406 9.32812
Q26.6094 9.32812 27.3906 9.5
Q28.1719 9.67188 28.7812 9.89062
Q29.3906 10.1094 29.7969 10.2812
Q30.2188 10.4531 30.5625 10.4531
Q30.8594 10.4531 31.125 10.2812
Q31.3906 10.1094 31.5312 9.59375
Q31.6875 9.07812 31.8125 8.20312
Q31.9375 7.32812 31.9375 5.95312" id="Calibri-Bold-74"/>
      <path d="
M43.2656 1.51562
Q43.2656 0.828125 42.7656 0.4375
Q42.2812 0.046875 41.2344 -0.125
Q40.1875 -0.296875 38.1406 -0.296875
Q35.9375 -0.296875 34.9375 -0.125
Q33.9375 0.046875 33.5156 0.4375
Q33.1094 0.828125 33.1094 1.51562
L33.1094 4.98438
Q30.4219 2.09375 26.9688 0.484375
Q23.5312 -1.125 19.3438 -1.125
Q15.875 -1.125 12.9688 -0.21875
Q10.0625 0.6875 7.9375 2.46875
Q5.8125 4.25 4.64062 6.875
Q3.46875 9.51562 3.46875 13.0312
Q3.46875 16.8438 4.95312 19.6562
Q6.45312 22.4688 9.40625 24.2969
Q12.3594 26.125 16.75 27
Q21.1406 27.875 26.9531 27.875
L31.2031 27.875
L31.2031 30.5156
Q31.2031 32.5625 30.7812 34.0938
Q30.375 35.6406 29.4219 36.6719
Q28.4688 37.7031 26.875 38.1875
Q25.2969 38.6719 22.9531 38.6719
Q19.875 38.6719 17.4531 37.9844
Q15.0469 37.3125 13.1875 36.4688
Q11.3281 35.6406 10.0781 34.9531
Q8.84375 34.2812 8.0625 34.2812
Q7.51562 34.2812 7.09375 34.625
Q6.6875 34.9688 6.42188 35.5938
Q6.15625 36.2344 6 37.1562
Q5.85938 38.0938 5.85938 39.2031
Q5.85938 40.7188 6.09375 41.5938
Q6.34375 42.4844 7.03125 43.1875
Q7.71875 43.8906 9.42188 44.75
Q11.1406 45.6094 13.4219 46.3438
Q15.7188 47.0781 18.4219 47.5312
Q21.1406 48 24.0312 48
Q29.1562 48 32.7812 47
Q36.4219 46 38.7656 43.9219
Q41.1094 41.8438 42.1875 38.5625
Q43.2656 35.2969 43.2656 30.8125
z

M31.2031 20.1719
L26.5156 20.1719
Q23.5312 20.1719 21.4375 19.7188
Q19.3438 19.2812 18.0156 18.4062
Q16.7031 17.5312 16.0938 16.2812
Q15.4844 15.0469 15.4844 13.4219
Q15.4844 10.6875 17.2188 9.125
Q18.9531 7.5625 22.0156 7.5625
Q24.6094 7.5625 26.7812 8.875
Q28.9531 10.2031 31.2031 12.75
z
" id="Calibri-Bold-61"/>
      <path d="
M50 24.0781
Q50 18.2656 48.75 13.5938
Q47.5156 8.9375 45.1094 5.65625
Q42.7188 2.39062 39.1562 0.625
Q35.5938 -1.125 31 -1.125
Q29.1094 -1.125 27.5156 -0.75
Q25.9219 -0.390625 24.4375 0.359375
Q22.9531 1.125 21.4844 2.25
Q20.0156 3.375 18.4531 4.89062
L18.4531 -15.625
Q18.4531 -16.1094 18.1562 -16.5
Q17.875 -16.8906 17.1562 -17.1562
Q16.4531 -17.4375 15.2812 -17.5781
Q14.1094 -17.7188 12.3125 -17.7188
Q10.5 -17.7188 9.32812 -17.5781
Q8.15625 -17.4375 7.4375 -17.1562
Q6.73438 -16.8906 6.4375 -16.5
Q6.15625 -16.1094 6.15625 -15.625
L6.15625 45.2188
Q6.15625 45.7031 6.39062 46.0625
Q6.64062 46.4375 7.25 46.6719
Q7.85938 46.9219 8.85938 47.0469
Q9.85938 47.1719 11.375 47.1719
Q12.8438 47.1719 13.8438 47.0469
Q14.8438 46.9219 15.4531 46.6719
Q16.0625 46.4375 16.2969 46.0625
Q16.5469 45.7031 16.5469 45.2188
L16.5469 40.0938
Q18.4531 42.0469 20.2812 43.5312
Q22.125 45.0156 24.0156 46.0156
Q25.9219 47.0156 27.9531 47.5
Q29.9844 48 32.2812 48
Q37.0625 48 40.4219 46.1094
Q43.7969 44.2344 45.9219 40.9688
Q48.0469 37.7031 49.0156 33.3438
Q50 29 50 24.0781
M37.2031 23.1875
Q37.2031 25.9844 36.7812 28.5469
Q36.375 31.1094 35.375 33.1094
Q34.375 35.1094 32.7344 36.2969
Q31.1094 37.5 28.6562 37.5
Q27.4375 37.5 26.2344 37.125
Q25.0469 36.7656 23.7969 35.9375
Q22.5625 35.1094 21.2344 33.7812
Q19.9219 32.4688 18.4531 30.5156
L18.4531 16.1562
Q21.0469 12.8906 23.3906 11.1094
Q25.7344 9.32812 28.2656 9.32812
Q30.6719 9.32812 32.3438 10.5469
Q34.0312 11.7656 35.1094 13.7344
Q36.1875 15.7188 36.6875 18.2031
Q37.2031 20.7031 37.2031 23.1875" id="Calibri-Bold-70"/>
      <path d="
M34.125 41.1562
Q34.125 39.4062 34.0312 38.2812
Q33.9375 37.1562 33.7344 36.5156
Q33.5469 35.8906 33.2188 35.6406
Q32.9062 35.4062 32.4219 35.4062
Q32.0312 35.4062 31.5469 35.5781
Q31.0625 35.75 30.4375 35.9375
Q29.8281 36.1406 29.0938 36.2969
Q28.375 36.4688 27.4844 36.4688
Q26.4688 36.4688 25.4375 36.0469
Q24.4219 35.6406 23.3125 34.7656
Q22.2188 33.8906 21.0156 32.4219
Q19.8281 30.9531 18.4531 28.8125
L18.4531 1.65625
Q18.4531 1.17188 18.1562 0.796875
Q17.875 0.4375 17.1562 0.1875
Q16.4531 -0.046875 15.2812 -0.171875
Q14.1094 -0.296875 12.3125 -0.296875
Q10.5 -0.296875 9.32812 -0.171875
Q8.15625 -0.046875 7.4375 0.1875
Q6.73438 0.4375 6.4375 0.796875
Q6.15625 1.17188 6.15625 1.65625
L6.15625 45.2188
Q6.15625 45.7031 6.39062 46.0625
Q6.64062 46.4375 7.26562 46.6719
Q7.90625 46.9219 8.90625 47.0469
Q9.90625 47.1719 11.4219 47.1719
Q12.9844 47.1719 14.0156 47.0469
Q15.0469 46.9219 15.5938 46.6719
Q16.1562 46.4375 16.4062 46.0625
Q16.6562 45.7031 16.6562 45.2188
L16.6562 39.7969
Q18.3594 42.2344 19.875 43.8125
Q21.3906 45.4062 22.75 46.3281
Q24.125 47.2656 25.4844 47.625
Q26.8594 48 28.2188 48
Q28.8594 48 29.5938 47.9219
Q30.3281 47.8594 31.1094 47.6875
Q31.8906 47.5156 32.4688 47.2969
Q33.0625 47.0781 33.3281 46.8281
Q33.5938 46.5781 33.7188 46.2812
Q33.8438 46 33.9375 45.4844
Q34.0312 44.9688 34.0781 43.9375
Q34.125 42.9219 34.125 41.1562" id="Calibri-Bold-72"/>
      <path d="
M48.9219 57.9062
Q48.9219 56.5 48.7969 55.5
Q48.6875 54.5 48.4375 53.875
Q48.1875 53.2656 47.8281 52.9688
Q47.4688 52.6875 47.0156 52.6875
L31.2031 52.6875
L31.2031 1.76562
Q31.2031 1.26562 30.875 0.875
Q30.5625 0.484375 29.8281 0.234375
Q29.1094 0 27.8594 -0.140625
Q26.6094 -0.296875 24.75 -0.296875
Q22.9062 -0.296875 21.6562 -0.140625
Q20.4062 0 19.6719 0.234375
Q18.9531 0.484375 18.625 0.875
Q18.3125 1.26562 18.3125 1.76562
L18.3125 52.6875
L2.48438 52.6875
Q2 52.6875 1.65625 52.9688
Q1.3125 53.2656 1.0625 53.875
Q0.828125 54.5 0.703125 55.5
Q0.59375 56.5 0.59375 57.9062
Q0.59375 59.375 0.703125 60.3906
Q0.828125 61.4219 1.0625 62.0312
Q1.3125 62.6406 1.65625 62.9062
Q2 63.1875 2.48438 63.1875
L47.0156 63.1875
Q47.4688 63.1875 47.8281 62.9062
Q48.1875 62.6406 48.4375 62.0312
Q48.6875 61.4219 48.7969 60.3906
Q48.9219 59.375 48.9219 57.9062" id="Calibri-Bold-54"/>
     </defs>
     <g style="fill:#ff0000;" transform="translate(34.61 139.0346875)rotate(-90.0)scale(0.14 -0.14)">
      <use xlink:href="#Calibri-Bold-54"/>
      <use x="49.51171875" xlink:href="#Calibri-Bold-65"/>
      <use x="99.853515625" xlink:href="#Calibri-Bold-6d"/>
      <use x="181.201171875" xlink:href="#Calibri-Bold-70"/>
      <use x="234.86328125" xlink:href="#Calibri-Bold-65"/>
      <use x="285.205078125" xlink:href="#Calibri-Bold-72"/>
      <use x="320.751953125" xlink:href="#Calibri-Bold-61"/>
      <use x="370.1171875" xlink:href="#Calibri-Bold-74"/>
      <use x="404.78515625" xlink:href="#Calibri-Bold-75"/>
      <use x="458.447265625" xlink:href="#Calibri-Bold-72"/>
      <use x="493.994140625" xlink:href="#Calibri-Bold-65"/>
     </g>
    </g>
   </g>
   <g id="text_19">
    <!-- Toledo Low Service Pump Station -->
    <defs>
     <path d="
M20.3125 0
L6.59375 0
L6.59375 51.8594
L19.3438 51.8594
L19.3438 44.4844
Q22.6094 49.7031 25.2188 51.3594
Q27.8281 53.0312 31.1562 53.0312
Q35.8438 53.0312 40.1875 50.4375
L35.9375 38.4844
Q32.4688 40.7188 29.5 40.7188
Q26.6094 40.7188 24.6094 39.125
Q22.6094 37.5469 21.4531 33.3906
Q20.3125 29.25 20.3125 16.0156
z
" id="Arial-BoldMT-72"/>
     <path d="
M52.3906 36.5312
L38.875 34.0781
Q38.1875 38.1406 35.7656 40.1875
Q33.3438 42.2344 29.5 42.2344
Q24.3594 42.2344 21.3125 38.6875
Q18.2656 35.1562 18.2656 26.8594
Q18.2656 17.625 21.3594 13.8125
Q24.4688 10.0156 29.6875 10.0156
Q33.5938 10.0156 36.0781 12.2344
Q38.5781 14.4531 39.5938 19.875
L53.0781 17.5781
Q50.9844 8.29688 45.0156 3.5625
Q39.0625 -1.17188 29.0469 -1.17188
Q17.6719 -1.17188 10.9062 6
Q4.15625 13.1875 4.15625 25.875
Q4.15625 38.7188 10.9375 45.875
Q17.7188 53.0312 29.2969 53.0312
Q38.7656 53.0312 44.3594 48.9531
Q49.9531 44.875 52.3906 36.5312" id="Arial-BoldMT-63"/>
     <path d="
M54.7344 0
L42 0
L42 7.625
Q38.8125 3.17188 34.4844 1
Q30.1719 -1.17188 25.7812 -1.17188
Q16.8438 -1.17188 10.4688 6.03125
Q4.10938 13.2344 4.10938 26.125
Q4.10938 39.3125 10.2969 46.1719
Q16.5 53.0312 25.9844 53.0312
Q34.6719 53.0312 41.0156 45.7969
L41.0156 71.5781
L54.7344 71.5781
z

M18.1094 27.0469
Q18.1094 18.75 20.4062 15.0469
Q23.7344 9.67188 29.6875 9.67188
Q34.4219 9.67188 37.7344 13.6875
Q41.0625 17.7188 41.0625 25.7344
Q41.0625 34.6719 37.8438 38.5938
Q34.625 42.5312 29.5938 42.5312
Q24.7031 42.5312 21.4062 38.6406
Q18.1094 34.7656 18.1094 27.0469" id="Arial-BoldMT-64"/>
     <path d="
M37.2031 16.5
L50.875 14.2031
Q48.25 6.6875 42.5469 2.75
Q36.8594 -1.17188 28.3281 -1.17188
Q14.7969 -1.17188 8.29688 7.67188
Q3.17188 14.75 3.17188 25.5312
Q3.17188 38.4219 9.90625 45.7188
Q16.6562 53.0312 26.9531 53.0312
Q38.5312 53.0312 45.2188 45.3906
Q51.9062 37.75 51.6094 21.9688
L17.2344 21.9688
Q17.3906 15.875 20.5625 12.4688
Q23.7344 9.07812 28.4688 9.07812
Q31.6875 9.07812 33.875 10.8281
Q36.0781 12.5938 37.2031 16.5
M37.9844 30.375
Q37.8438 36.3281 34.9062 39.4219
Q31.9844 42.5312 27.7812 42.5312
Q23.2969 42.5312 20.3594 39.2656
Q17.4375 35.9844 17.4844 30.375
z
" id="Arial-BoldMT-65"/>
     <path d="
M41.3125 0
L41.3125 7.76562
Q38.4844 3.60938 33.8594 1.21875
Q29.25 -1.17188 24.125 -1.17188
Q18.8906 -1.17188 14.7344 1.125
Q10.5938 3.42188 8.73438 7.5625
Q6.89062 11.7188 6.89062 19.0469
L6.89062 51.8594
L20.6094 51.8594
L20.6094 28.0312
Q20.6094 17.0938 21.3594 14.625
Q22.125 12.1562 24.125 10.7188
Q26.125 9.28125 29.2031 9.28125
Q32.7188 9.28125 35.5 11.2031
Q38.2812 13.1406 39.2969 15.9844
Q40.3281 18.8438 40.3281 29.9844
L40.3281 51.8594
L54.0469 51.8594
L54.0469 0
z
" id="Arial-BoldMT-75"/>
     <path d="
M30.9531 51.8594
L30.9531 40.9219
L21.5781 40.9219
L21.5781 20.0156
Q21.5781 13.6719 21.8438 12.625
Q22.125 11.5781 23.0781 10.8906
Q24.0312 10.2031 25.3906 10.2031
Q27.2969 10.2031 30.9062 11.5312
L32.0781 0.875
Q27.2969 -1.17188 21.2344 -1.17188
Q17.5312 -1.17188 14.5469 0.0625
Q11.5781 1.3125 10.1875 3.29688
Q8.79688 5.28125 8.25 8.64062
Q7.8125 11.0312 7.8125 18.3125
L7.8125 40.9219
L1.51562 40.9219
L1.51562 51.8594
L7.8125 51.8594
L7.8125 62.1562
L21.5781 70.1719
L21.5781 51.8594
z
" id="Arial-BoldMT-74"/>
     <path d="
M7.67188 0
L7.67188 71
L22.125 71
L22.125 12.0625
L58.0625 12.0625
L58.0625 0
z
" id="Arial-BoldMT-4c"/>
     <path id="Arial-BoldMT-20"/>
     <path d="
M17.4375 36.0312
L4.98438 38.2812
Q7.07812 45.7969 12.2031 49.4062
Q17.3281 53.0312 27.4375 53.0312
Q36.625 53.0312 41.1094 50.8594
Q45.6094 48.6875 47.4375 45.3438
Q49.2656 42 49.2656 33.0625
L49.125 17.0469
Q49.125 10.2031 49.7812 6.95312
Q50.4375 3.71875 52.25 0
L38.6719 0
Q38.1406 1.375 37.3594 4.04688
Q37.0156 5.28125 36.8594 5.67188
Q33.3438 2.25 29.3438 0.53125
Q25.3438 -1.17188 20.7969 -1.17188
Q12.7969 -1.17188 8.17188 3.17188
Q3.5625 7.51562 3.5625 14.1562
Q3.5625 18.5625 5.65625 22
Q7.76562 25.4375 11.5469 27.2656
Q15.3281 29.1094 22.4688 30.4688
Q32.0781 32.2812 35.7969 33.8438
L35.7969 35.2031
Q35.7969 39.1562 33.8438 40.8438
Q31.8906 42.5312 26.4688 42.5312
Q22.7969 42.5312 20.75 41.0938
Q18.7031 39.6562 17.4375 36.0312
M35.7969 24.9062
Q33.1562 24.0312 27.4375 22.7969
Q21.7344 21.5781 19.9688 20.4062
Q17.2812 18.5 17.2812 15.5781
Q17.2812 12.7031 19.4219 10.5938
Q21.5781 8.5 24.9062 8.5
Q28.6094 8.5 31.9844 10.9375
Q34.4688 12.7969 35.25 15.4844
Q35.7969 17.2344 35.7969 22.1719
z
" id="Arial-BoldMT-61"/>
     <path d="
M16.8438 0
L0.4375 51.8594
L13.7656 51.8594
L23.4844 17.875
L32.4219 51.8594
L45.6562 51.8594
L54.2969 17.875
L64.2031 51.8594
L77.7344 51.8594
L61.0781 0
L47.9062 0
L38.9688 33.3438
L30.1719 0
z
" id="Arial-BoldMT-77"/>
     <path d="
M6.78125 51.8594
L19.5781 51.8594
L19.5781 44.2344
Q22.0781 48.1406 26.3125 50.5781
Q30.5625 53.0312 35.75 53.0312
Q44.7812 53.0312 51.0781 45.9531
Q57.375 38.875 57.375 26.2188
Q57.375 13.2344 51.0156 6.03125
Q44.6719 -1.17188 35.6406 -1.17188
Q31.3438 -1.17188 27.8438 0.53125
Q24.3594 2.25 20.5156 6.39062
L20.5156 -19.7344
L6.78125 -19.7344
z

M20.3594 26.8125
Q20.3594 18.0625 23.8281 13.8906
Q27.2969 9.71875 32.2812 9.71875
Q37.0625 9.71875 40.2344 13.5469
Q43.4062 17.3906 43.4062 26.125
Q43.4062 34.2812 40.125 38.2344
Q36.8594 42.1875 32.0312 42.1875
Q27 42.1875 23.6719 38.2969
Q20.3594 34.4219 20.3594 26.8125" id="Arial-BoldMT-70"/>
     <path d="
M7.17188 0
L7.17188 71.5781
L20.9062 71.5781
L20.9062 0
z
" id="Arial-BoldMT-6c"/>
     <path d="
M6.15625 51.8594
L18.7969 51.8594
L18.7969 44.7812
Q25.5938 53.0312 34.9688 53.0312
Q39.9375 53.0312 43.5938 50.9688
Q47.2656 48.9219 49.6094 44.7812
Q53.0312 48.9219 56.9844 50.9688
Q60.9375 53.0312 65.4375 53.0312
Q71.1406 53.0312 75.0938 50.7031
Q79.0469 48.3906 81 43.8906
Q82.4219 40.5781 82.4219 33.1562
L82.4219 0
L68.7031 0
L68.7031 29.6406
Q68.7031 37.3594 67.2812 39.5938
Q65.375 42.5312 61.4219 42.5312
Q58.5469 42.5312 56 40.7656
Q53.4688 39.0156 52.3438 35.625
Q51.2188 32.2344 51.2188 24.9062
L51.2188 0
L37.5 0
L37.5 28.4219
Q37.5 35.9844 36.7656 38.1719
Q36.0312 40.375 34.4844 41.4531
Q32.9531 42.5312 30.3281 42.5312
Q27.1562 42.5312 24.6094 40.8125
Q22.0781 39.1094 20.9688 35.8906
Q19.875 32.6719 19.875 25.2031
L19.875 0
L6.15625 0
z
" id="Arial-BoldMT-6d"/>
     <path d="
M54.3438 0
L40.625 0
L40.625 26.4688
Q40.625 34.8594 39.75 37.3281
Q38.875 39.7969 36.8906 41.1562
Q34.9062 42.5312 32.125 42.5312
Q28.5625 42.5312 25.7344 40.5781
Q22.9062 38.625 21.8438 35.3906
Q20.7969 32.1719 20.7969 23.4844
L20.7969 0
L7.07812 0
L7.07812 51.8594
L19.8281 51.8594
L19.8281 44.2344
Q26.6094 53.0312 36.9219 53.0312
Q41.4531 53.0312 45.2031 51.3906
Q48.9688 49.75 50.8906 47.2031
Q52.8281 44.6719 53.5781 41.4531
Q54.3438 38.2344 54.3438 32.2344
z
" id="Arial-BoldMT-6e"/>
     <path d="
M4 26.6562
Q4 33.5 7.375 39.8906
Q10.75 46.2969 16.9219 49.6562
Q23.0938 53.0312 30.7188 53.0312
Q42.4844 53.0312 50 45.3906
Q57.5156 37.75 57.5156 26.0781
Q57.5156 14.3125 49.9219 6.5625
Q42.3281 -1.17188 30.8125 -1.17188
Q23.6875 -1.17188 17.2188 2.04688
Q10.75 5.28125 7.375 11.5
Q4 17.7188 4 26.6562
M18.0625 25.9219
Q18.0625 18.2188 21.7188 14.1094
Q25.3906 10.0156 30.7656 10.0156
Q36.1406 10.0156 39.7656 14.1094
Q43.4062 18.2188 43.4062 26.0312
Q43.4062 33.6406 39.7656 37.7344
Q36.1406 41.8438 30.7656 41.8438
Q25.3906 41.8438 21.7188 37.7344
Q18.0625 33.6406 18.0625 25.9219" id="Arial-BoldMT-6f"/>
     <path d="
M7.17188 58.8906
L7.17188 71.5781
L20.9062 71.5781
L20.9062 58.8906
z

M7.17188 0
L7.17188 51.8594
L20.9062 51.8594
L20.9062 0
z
" id="Arial-BoldMT-69"/>
     <path d="
M23.3906 0
L23.3906 59.4688
L2.15625 59.4688
L2.15625 71.5781
L59.0312 71.5781
L59.0312 59.4688
L37.8438 59.4688
L37.8438 0
z
" id="Arial-BoldMT-54"/>
     <path d="
M7.28125 0
L7.28125 71.5781
L30.4688 71.5781
Q43.6562 71.5781 47.6562 70.5156
Q53.8125 68.8906 57.9531 63.5
Q62.1094 58.1094 62.1094 49.5625
Q62.1094 42.9688 59.7188 38.4688
Q57.3281 33.9844 53.6406 31.4219
Q49.9531 28.8594 46.1406 28.0312
Q40.9688 27 31.1562 27
L21.7344 27
L21.7344 0
z

M21.7344 59.4688
L21.7344 39.1562
L29.6406 39.1562
Q38.1875 39.1562 41.0625 40.2812
Q43.9531 41.4062 45.5781 43.7969
Q47.2188 46.1875 47.2188 49.3594
Q47.2188 53.2656 44.9219 55.7969
Q42.625 58.3438 39.1094 58.9844
Q36.5312 59.4688 28.7188 59.4688
z
" id="Arial-BoldMT-50"/>
     <path d="
M3.60938 23.2969
L17.6719 24.6562
Q18.9531 17.5781 22.8281 14.25
Q26.7031 10.9375 33.2969 10.9375
Q40.2812 10.9375 43.8125 13.8906
Q47.3594 16.8438 47.3594 20.7969
Q47.3594 23.3438 45.875 25.125
Q44.3906 26.9062 40.6719 28.2188
Q38.1406 29.1094 29.1094 31.3438
Q17.4844 34.2344 12.7969 38.4219
Q6.20312 44.3438 6.20312 52.8281
Q6.20312 58.2969 9.29688 63.0625
Q12.4062 67.8281 18.2344 70.3125
Q24.0781 72.7969 32.3281 72.7969
Q45.7969 72.7969 52.6094 66.8906
Q59.4219 60.9844 59.7656 51.125
L45.3125 50.4844
Q44.3906 56 41.3281 58.4219
Q38.2812 60.8438 32.1719 60.8438
Q25.875 60.8438 22.3125 58.25
Q20.0156 56.5938 20.0156 53.8125
Q20.0156 51.2656 22.1719 49.4688
Q24.9062 47.1719 35.4531 44.6719
Q46 42.1875 51.0469 39.5156
Q56.1094 36.8594 58.9531 32.25
Q61.8125 27.6406 61.8125 20.8438
Q61.8125 14.7031 58.3906 9.32812
Q54.9844 3.95312 48.7344 1.34375
Q42.4844 -1.26562 33.1562 -1.26562
Q19.5781 -1.26562 12.2969 5
Q5.03125 11.2812 3.60938 23.2969" id="Arial-BoldMT-53"/>
     <path d="
M21.4375 0
L0.53125 51.8594
L14.9375 51.8594
L24.7031 25.3906
L27.5469 16.5469
Q28.6562 19.9219 28.9531 21
Q29.6406 23.1875 30.4219 25.3906
L40.2812 51.8594
L54.3906 51.8594
L33.7969 0
z
" id="Arial-BoldMT-76"/>
    </defs>
    <g transform="translate(179.73 17.5)scale(0.16 -0.16)">
     <use xlink:href="#Arial-BoldMT-54"/>
     <use x="53.708984375" xlink:href="#Arial-BoldMT-6f"/>
     <use x="114.79296875" xlink:href="#Arial-BoldMT-6c"/>
     <use x="142.576171875" xlink:href="#Arial-BoldMT-65"/>
     <use x="198.19140625" xlink:href="#Arial-BoldMT-64"/>
     <use x="259.275390625" xlink:href="#Arial-BoldMT-6f"/>
     <use x="320.359375" xlink:href="#Arial-BoldMT-20"/>
     <use x="348.142578125" xlink:href="#Arial-BoldMT-4c"/>
     <use x="409.2265625" xlink:href="#Arial-BoldMT-6f"/>
     <use x="470.310546875" xlink:href="#Arial-BoldMT-77"/>
     <use x="548.09375" xlink:href="#Arial-BoldMT-20"/>
     <use x="575.876953125" xlink:href="#Arial-BoldMT-53"/>
     <use x="642.576171875" xlink:href="#Arial-BoldMT-65"/>
     <use x="698.19140625" xlink:href="#Arial-BoldMT-72"/>
     <use x="737.107421875" xlink:href="#Arial-BoldMT-76"/>
     <use x="792.72265625" xlink:href="#Arial-BoldMT-69"/>
     <use x="820.505859375" xlink:href="#Arial-BoldMT-63"/>
     <use x="876.12109375" xlink:href="#Arial-BoldMT-65"/>
     <use x="931.736328125" xlink:href="#Arial-BoldMT-20"/>
     <use x="959.51953125" xlink:href="#Arial-BoldMT-50"/>
     <use x="1026.21875" xlink:href="#Arial-BoldMT-75"/>
     <use x="1087.30273438" xlink:href="#Arial-BoldMT-6d"/>
     <use x="1176.21875" xlink:href="#Arial-BoldMT-70"/>
     <use x="1237.30273438" xlink:href="#Arial-BoldMT-20"/>
     <use x="1265.0859375" xlink:href="#Arial-BoldMT-53"/>
     <use x="1331.78515625" xlink:href="#Arial-BoldMT-74"/>
     <use x="1365.0859375" xlink:href="#Arial-BoldMT-61"/>
     <use x="1420.70117188" xlink:href="#Arial-BoldMT-74"/>
     <use x="1454.00195312" xlink:href="#Arial-BoldMT-69"/>
     <use x="1481.78515625" xlink:href="#Arial-BoldMT-6f"/>
     <use x="1542.86914062" xlink:href="#Arial-BoldMT-6e"/>
    </g>
   </g>
  </g>
  <g id="axes_2">
   <g id="line2d_45">
    <path clip-path="url(#p12008f58a0)" d="
M75 148.5
L76.6348 125.377
L78.5033 119.025
L80.3715 104.843
L82.24 100.301
L84.1083 138.327
L85.9768 110.775
L87.8453 88.2233
L89.7135 104.076
L91.582 116.591
L93.4505 111.972
L95.3188 60.3643
L97.1873 113.247
L99.0557 42.5613
L100.924 121.771
L102.792 116.312
L104.661 108.129
L106.529 117.789
L108.398 150.455
L110.266 157.114
L112.134 135.394
L114.003 99.7211
L115.871 109.836
L117.74 131.746
L119.608 72.6718
L121.476 94.9745
L123.345 95.4
L127.082 124.487
L128.95 89.9134
L130.819 69.3687
L132.687 71.798
L134.555 105.348
L136.424 152.832
L138.292 77.3111
L140.161 140.905
L142.029 116.463
L143.897 103.409
L145.766 97.8494
L147.634 102.995
L149.503 85.0993
L151.371 98.2691
L153.239 124.695
L155.108 75.4976
L156.976 115.488
L158.845 116.217
L160.713 113.724
L162.581 115.991
L164.45 72.5544
L166.318 108.333
L168.187 139.789
L170.055 129.633
L171.924 138.569
L173.792 98.6377
L175.66 135.254
L177.529 118.633
L179.397 96.5029
L181.266 128.062
L183.134 105.136
L185.002 110.67
L186.871 86.4729
L188.739 132.534
L190.608 120.139
L192.476 127.629
L194.344 107.048
L196.213 109.202
L198.081 145.237
L199.95 81.8247
L201.818 107.028
L203.687 134.106
L205.555 115.804
L207.423 90.9521
L209.292 108.944
L211.16 48.2122
L213.029 94.8705
L214.897 89.1715
L216.765 119.227
L218.634 120.745
L220.502 98.0798
L222.371 119.466
L224.239 92.2878
L226.107 106.097
L227.976 112.11
L229.844 58.9427
L231.713 108.586
L233.581 101.826
L235.449 122.903
L237.318 77.4582
L239.186 121.989
L241.055 56.3185
L242.923 129.186
L244.792 121.694
L246.66 64.4487
L248.528 135.667
L250.397 133.774
L252.265 116.471
L254.134 134.864
L256.002 136.094
L257.87 83.1888
L259.739 136.022
L261.607 88.3742
L263.476 116.138
L265.344 102.483
L267.212 128.878
L269.081 94.7644
L270.949 124.737
L272.818 69.7099
L274.686 112.1
L276.555 101.125
L278.423 116.942
L280.291 85.4489
L282.16 59.4495
L284.028 127.796
L285.897 141.627
L287.765 90.5666
L289.633 76.41
L291.502 110.197
L293.37 83.3711
L295.239 167.312
L298.975 88.6398
L300.844 102.313
L302.712 107.087
L304.581 70.0321
L306.449 130.653
L308.317 76.495
L310.186 58.7806
L312.054 112.026
L313.923 120.421
L315.791 122.803
L317.659 96.7896
L319.528 82.7223
L321.396 89.5541
L323.265 125.41
L325.133 103.777
L327.001 100.995
L328.87 63.9651
L330.738 105.878
L332.607 117.063
L334.475 98.1992
L336.343 81.3481
L338.212 144.785
L340.08 94.2189
L341.949 108.084
L343.817 120.743
L345.685 93.5134
L347.554 81.7119
L349.422 59.233
L351.291 85.7604
L353.159 129.848
L355.027 80.0854
L356.896 114.752
L358.764 68.9079
L360.633 119.065
L362.501 123.967
L364.37 106.076
L366.238 124.529
L368.106 126.417
L369.975 72.1515
L371.843 97.7489
L373.712 66.6429
L375.58 109.628
L377.448 100.671
L379.317 95.1326
L381.185 60.4208
L383.054 133.424
L384.922 87.7956
L386.79 85.8368
L388.659 106.221
L390.527 89.9026
L392.396 76.6014
L394.264 97.0782
L396.133 134.389
L398.001 93.4545
L399.869 85.969
L401.738 88.7146
L403.606 66.6266
L405.475 108.409
L407.343 129.858
L411.08 115.463
L412.948 113.148
L414.817 103.589
L416.685 122.755
L418.553 130.305
L420.422 81.6997
L422.29 87.9856
L424.159 106.996
L426.027 103.743
L427.895 76.7365
L429.764 124.129
L431.632 85.3819
L433.501 97.0303
L435.369 93.1448
L437.238 107.57
L439.106 120.582
L440.974 93.9724
L442.843 129.716
L444.711 100.678
L446.58 104.822
L448.448 116.476
L450.316 142.458
L452.185 135.185
L454.053 97.6668
L455.922 144.126
L457.79 102.945
L459.658 78.7537
L461.527 156.335
L463.395 121.807
L465.264 145.904
L467.132 115.332
L469.001 99.3236
L470.869 88.6689
L472.737 116.697
L474.606 110.622
L476.474 78.0437
L478.343 87.1926
L480.211 77.0523
L482.079 158.703
L483.948 119.448
L485.816 136.428
L487.685 83.281
L489.553 69.8289
L491.421 145.707
L493.29 117.448
L495.158 143.559
L497.027 99.5392
L498.895 105.96
L500.763 95.0081
L502.632 112.616
L504.5 104.643
L506.369 113.574
L508.237 121.946
L510.106 103.835
L511.974 104.809
L513.842 115.845
L515.711 50.8989
L517.579 117.51
L519.448 142.485
L521.316 112.973
L523.184 124.88
L525.053 108.034
L526.921 103.436
L528.79 150.198
L530.658 174.349
L532.526 108.576
L534.395 107.565
L536.263 115.981
L538.132 67.4112
L540 143.367
L540 143.367" style="fill:none;stroke:#0000ff;stroke-linecap:square;"/>
   </g>
   <g id="patch_6">
    <path d="
M75 22.5
L540 22.5" style="fill:none;stroke:#000000;stroke-linecap:square;stroke-linejoin:miter;"/>
   </g>
   <g id="matplotlib.axis_3">
    <g id="ytick_9">
     <g id="line2d_46">
      <defs>
       <path d="
M0 0
L4 0" id="m1362bf046a" style="stroke:#0000ff;stroke-width:2;"/>
      </defs>
      <g>
       <use style="fill:#0000ff;stroke:#0000ff;stroke-width:2;" x="540.0" xlink:href="#m1362bf046a" y="180.0"/>
      </g>
     </g>
     <g id="text_20">
      <!-- −5 -->
      <g style="fill:#0000ff;" transform="translate(548.0 183.31125)scale(0.12 -0.12)">
       <use xlink:href="#BitstreamVeraSans-Bold-2212"/>
       <use x="83.7890625" xlink:href="#BitstreamVeraSans-Bold-35"/>
      </g>
     </g>
    </g>
    <g id="ytick_10">
     <g id="line2d_47">
      <g>
       <use style="fill:#0000ff;stroke:#0000ff;stroke-width:2;" x="540.0" xlink:href="#m1362bf046a" y="157.5"/>
      </g>
     </g>
     <g id="text_21">
      <!-- 0 -->
      <g style="fill:#0000ff;" transform="translate(548.0 160.81125)scale(0.12 -0.12)">
       <use xlink:href="#BitstreamVeraSans-Bold-30"/>
      </g>
     </g>
    </g>
    <g id="ytick_11">
     <g id="line2d_48">
      <g>
       <use style="fill:#0000ff;stroke:#0000ff;stroke-width:2;" x="540.0" xlink:href="#m1362bf046a" y="135.0"/>
      </g>
     </g>
     <g id="text_22">
      <!-- 5 -->
      <g style="fill:#0000ff;" transform="translate(548.0 138.31125)scale(0.12 -0.12)">
       <use xlink:href="#BitstreamVeraSans-Bold-35"/>
      </g>
     </g>
    </g>
    <g id="ytick_12">
     <g id="line2d_49">
      <g>
       <use style="fill:#0000ff;stroke:#0000ff;stroke-width:2;" x="540.0" xlink:href="#m1362bf046a" y="112.5"/>
      </g>
     </g>
     <g id="text_23">
      <!-- 10 -->
      <g style="fill:#0000ff;" transform="translate(548.0 115.81125)scale(0.12 -0.12)">
       <use xlink:href="#BitstreamVeraSans-Bold-31"/>
       <use x="69.580078125" xlink:href="#BitstreamVeraSans-Bold-30"/>
      </g>
     </g>
    </g>
    <g id="ytick_13">
     <g id="line2d_50">
      <g>
       <use style="fill:#0000ff;stroke:#0000ff;stroke-width:2;" x="540.0" xlink:href="#m1362bf046a" y="90.0"/>
      </g>
     </g>
     <g id="text_24">
      <!-- 15 -->
      <g style="fill:#0000ff;" transform="translate(548.0 93.31125)scale(0.12 -0.12)">
       <use xlink:href="#BitstreamVeraSans-Bold-31"/>
       <use x="69.580078125" xlink:href="#BitstreamVeraSans-Bold-35"/>
      </g>
     </g>
    </g>
    <g id="ytick_14">
     <g id="line2d_51">
      <g>
       <use style="fill:#0000ff;stroke:#0000ff;stroke-width:2;" x="540.0" xlink:href="#m1362bf046a" y="67.5"/>
      </g>
     </g>
     <g id="text_25">
      <!-- 20 -->
      <g style="fill:#0000ff;" transform="translate(548.0 70.81125)scale(0.12 -0.12)">
       <use xlink:href="#BitstreamVeraSans-Bold-32"/>
       <use x="69.580078125" xlink:href="#BitstreamVeraSans-Bold-30"/>
      </g>
     </g>
    </g>
    <g id="ytick_15">
     <g id="line2d_52">
      <g>
       <use style="fill:#0000ff;stroke:#0000ff;stroke-width:2;" x="540.0" xlink:href="#m1362bf046a" y="45.0"/>
      </g>
     </g>
     <g id="text_26">
      <!-- 25 -->
      <g style="fill:#0000ff;" transform="translate(548.0 48.31125)scale(0.12 -0.12)">
       <use xlink:href="#BitstreamVeraSans-Bold-32"/>
       <use x="69.580078125" xlink:href="#BitstreamVeraSans-Bold-35"/>
      </g>
     </g>
    </g>
    <g id="ytick_16">
     <g id="line2d_53">
      <g>
       <use style="fill:#0000ff;stroke:#0000ff;stroke-width:2;" x="540.0" xlink:href="#m1362bf046a" y="22.5"/>
      </g>
     </g>
     <g id="text_27">
      <!-- 30 -->
      <defs>
       <path d="
M46.5781 39.3125
Q53.9531 37.4062 57.7812 32.6875
Q61.625 27.9844 61.625 20.7031
Q61.625 9.85938 53.3125 4.21875
Q45.0156 -1.42188 29.1094 -1.42188
Q23.4844 -1.42188 17.8438 -0.515625
Q12.2031 0.390625 6.6875 2.20312
L6.6875 16.7031
Q11.9688 14.0625 17.1562 12.7188
Q22.3594 11.375 27.3906 11.375
Q34.8594 11.375 38.8438 13.9531
Q42.8281 16.5469 42.8281 21.3906
Q42.8281 26.375 38.75 28.9375
Q34.6719 31.5 26.7031 31.5
L19.1875 31.5
L19.1875 43.6094
L27.0938 43.6094
Q34.1875 43.6094 37.6406 45.8281
Q41.1094 48.0469 41.1094 52.5938
Q41.1094 56.7812 37.7344 59.0781
Q34.375 61.375 28.2188 61.375
Q23.6875 61.375 19.0469 60.3438
Q14.4062 59.3281 9.8125 57.3281
L9.8125 71.0938
Q15.375 72.6562 20.8438 73.4375
Q26.3125 74.2188 31.5938 74.2188
Q45.7969 74.2188 52.8438 69.5469
Q59.9062 64.8906 59.9062 55.5156
Q59.9062 49.125 56.5312 45.0469
Q53.1719 40.9688 46.5781 39.3125" id="BitstreamVeraSans-Bold-33"/>
      </defs>
      <g style="fill:#0000ff;" transform="translate(548.0 25.81125)scale(0.12 -0.12)">
       <use xlink:href="#BitstreamVeraSans-Bold-33"/>
       <use x="69.580078125" xlink:href="#BitstreamVeraSans-Bold-30"/>
      </g>
     </g>
    </g>
    <g id="text_28">
     <!-- Temperature(2) -->
     <defs>
      <path d="
M46.6875 5.21875
Q46.6875 3.8125 46.5625 2.8125
Q46.4375 1.8125 46.1875 1.17188
Q45.9531 0.53125 45.5625 0.265625
Q45.1719 0 44.6719 0
L8.34375 0
Q7.28125 0 6.5 0.1875
Q5.71875 0.390625 5.21875 0.953125
Q4.73438 1.51562 4.51562 2.57812
Q4.29688 3.65625 4.29688 5.375
Q4.29688 6.98438 4.4375 8.125
Q4.59375 9.28125 4.98438 10.1719
Q5.375 11.0781 5.98438 11.9375
Q6.59375 12.7969 7.5625 13.8125
L18.5 25.5312
Q21.7812 28.9531 23.7812 31.7656
Q25.7812 34.5781 26.9062 36.8906
Q28.0312 39.2031 28.4375 41.1562
Q28.8594 43.1094 28.8594 44.875
Q28.8594 46.4844 28.3438 47.9219
Q27.8281 49.3594 26.8281 50.4375
Q25.8281 51.5156 24.3125 52.125
Q22.7969 52.7344 20.75 52.7344
Q17.875 52.7344 15.6406 52
Q13.4219 51.2656 11.7344 50.3594
Q10.0625 49.4688 8.9375 48.7031
Q7.8125 47.9531 7.17188 47.9531
Q6.73438 47.9531 6.42188 48.2344
Q6.10938 48.5312 5.90625 49.2188
Q5.71875 49.9062 5.59375 51.0469
Q5.46875 52.2031 5.46875 53.8594
Q5.46875 54.9844 5.53125 55.7344
Q5.60938 56.5 5.75 57.0625
Q5.90625 57.625 6.14062 58.0312
Q6.39062 58.4531 7 59.0312
Q7.625 59.625 9.25 60.5156
Q10.8906 61.4219 13.2812 62.2812
Q15.6719 63.1406 18.5469 63.7188
Q21.4375 64.3125 24.5625 64.3125
Q29.5 64.3125 33.1719 63.0625
Q36.8594 61.8125 39.2969 59.5938
Q41.75 57.375 42.9375 54.3125
Q44.1406 51.2656 44.1406 47.75
Q44.1406 44.6719 43.5469 41.6875
Q42.9688 38.7188 41.1094 35.2812
Q39.2656 31.8438 35.8906 27.6562
Q32.5156 23.4844 26.9531 17.9688
L19.5781 10.4062
L44.4844 10.4062
Q44.9688 10.4062 45.375 10.1094
Q45.7969 9.8125 46.0938 9.20312
Q46.3906 8.59375 46.5312 7.59375
Q46.6875 6.59375 46.6875 5.21875" id="Calibri-Bold-32"/>
      <path d="
M26.125 66.7969
Q22.0156 57.2812 19.9219 47.1406
Q17.8281 37.0156 17.8281 26.375
Q17.8281 15.6719 19.9531 5.57812
Q22.0781 -4.5 26.0781 -14.1562
Q26.375 -14.9375 26.375 -15.5
Q26.375 -16.0625 25.8281 -16.4531
Q25.2969 -16.8438 24.1875 -17.0312
Q23.0938 -17.2344 21.1406 -17.2344
Q19.7812 -17.2344 18.7969 -17.1406
Q17.8281 -17.0469 17.1562 -16.875
Q16.5 -16.7031 16.125 -16.4219
Q15.7656 -16.1562 15.625 -15.8281
Q12.9844 -10.75 11.0312 -5.59375
Q9.07812 -0.4375 7.78125 4.8125
Q6.5 10.0625 5.85938 15.4062
Q5.21875 20.75 5.21875 26.2656
Q5.21875 31.7344 5.875 37.0781
Q6.54688 42.4375 7.85938 47.6875
Q9.1875 52.9375 11.1094 58.1094
Q13.0312 63.2812 15.625 68.4062
Q15.7188 68.6562 16.0156 68.8438
Q16.3125 69.0469 16.8906 69.2188
Q17.4844 69.3906 18.4844 69.4531
Q19.4844 69.5312 21.0469 69.5312
Q22.7969 69.5312 23.9219 69.3594
Q25.0469 69.1875 25.625 68.8438
Q26.2188 68.5 26.2969 67.9688
Q26.375 67.4375 26.125 66.7969" id="Calibri-Bold-28"/>
      <path d="
M25.875 26.2656
Q25.875 20.75 25.2344 15.4062
Q24.6094 10.0625 23.3125 4.8125
Q22.0156 -0.4375 20.0938 -5.59375
Q18.1719 -10.75 15.5312 -15.8281
Q15.375 -16.1562 15.0156 -16.4219
Q14.6562 -16.7031 13.9844 -16.875
Q13.3281 -17.0469 12.3438 -17.1406
Q11.375 -17.2344 10.0156 -17.2344
Q8.01562 -17.2344 6.90625 -17.0312
Q5.8125 -16.8438 5.26562 -16.4531
Q4.73438 -16.0625 4.73438 -15.5
Q4.73438 -14.9375 5.03125 -14.1562
Q9.07812 -4.59375 11.2031 5.53125
Q13.3281 15.6719 13.3281 26.375
Q13.3281 37.0156 11.2188 47.1406
Q9.125 57.2812 4.98438 66.7969
Q4.73438 67.4375 4.8125 67.9688
Q4.89062 68.5 5.5 68.8438
Q6.10938 69.1875 7.20312 69.3594
Q8.29688 69.5312 10.1094 69.5312
Q11.625 69.5312 12.5938 69.4531
Q13.5781 69.3906 14.2031 69.2188
Q14.8438 69.0469 15.1094 68.8438
Q15.375 68.6562 15.5312 68.4062
Q20.6094 58.1562 23.2344 47.6719
Q25.875 37.2031 25.875 26.2656" id="Calibri-Bold-29"/>
     </defs>
     <g style="fill:#0000ff;" transform="translate(579.03 146.85171875)rotate(-90.0)scale(0.14 -0.14)">
      <use xlink:href="#Calibri-Bold-54"/>
      <use x="49.51171875" xlink:href="#Calibri-Bold-65"/>
      <use x="99.853515625" xlink:href="#Calibri-Bold-6d"/>
      <use x="181.201171875" xlink:href="#Calibri-Bold-70"/>
      <use x="234.86328125" xlink:href="#Calibri-Bold-65"/>
      <use x="285.205078125" xlink:href="#Calibri-Bold-72"/>
      <use x="320.751953125" xlink:href="#Calibri-Bold-61"/>
      <use x="370.1171875" xlink:href="#Calibri-Bold-74"/>
      <use x="404.78515625" xlink:href="#Calibri-Bold-75"/>
      <use x="458.447265625" xlink:href="#Calibri-Bold-72"/>
      <use x="493.994140625" xlink:href="#Calibri-Bold-65"/>
      <use x="544.3359375" xlink:href="#Calibri-Bold-28"/>
      <use x="575.48828125" xlink:href="#Calibri-Bold-32"/>
      <use x="626.171875" xlink:href="#Calibri-Bold-29"/>
     </g>
    </g>
   </g>
  </g>
 </g>
 <defs>
  <clipPath id="p12008f58a0">
   <rect height="157.5" width="465.0" x="75.0" y="22.5"/>
  </clipPath>
 </defs>
</svg>
