<?xml version="1.0" encoding="utf-8" standalone="no"?>
<!DOCTYPE svg PUBLIC "-//W3C//DTD SVG 1.1//EN"
  "http://www.w3.org/Graphics/SVG/1.1/DTD/svg11.dtd">
<!-- Created with matplotlib (http://matplotlib.org/) -->
<svg height="360pt" version="1.1" viewBox="0 0 864 360" width="864pt" xmlns="http://www.w3.org/2000/svg" xmlns:xlink="http://www.w3.org/1999/xlink">
 <defs>
  <style type="text/css">
*{stroke-linecap:butt;stroke-linejoin:round;}
  </style>
 </defs>
 <g id="figure_1">
  <g id="patch_1">
   <path d="
M0 360
L864 360
L864 0
L0 0
z
" style="fill:#ffffff;"/>
  </g>
  <g id="axes_1">
   <g id="patch_2">
    <path d="
M128.611 265.514
L851.04 265.514
L851.04 30.56
L128.611 30.56
z
" style="fill:#ffffff;"/>
   </g>
   <g id="line2d_1">
    <path clip-path="url(#p7ae7bd9c5b)" d="
M128.611 101.046
L131.146 116.71
L133.681 108.878
L136.216 93.2143
L138.751 69.719
L141.285 61.8872
L146.355 77.5508
L148.89 93.2143
L151.425 77.5508
L153.96 54.0554
L156.494 69.719
L159.029 93.2143
L164.099 124.542
L169.169 140.205
L171.703 155.869
L174.238 163.7
L176.773 155.869
L179.308 155.869
L184.378 124.542
L186.912 132.373
L189.447 132.373
L191.982 155.869
L194.517 155.869
L199.587 187.196
L204.656 187.196
L207.191 202.859
L209.726 202.859
L212.261 210.691
L214.796 226.355
L219.865 226.355
L222.4 210.691
L224.935 210.691
L227.47 202.859
L232.54 202.859
L235.074 195.028
L237.609 202.859
L242.679 187.196
L245.214 187.196
L247.749 195.028
L252.818 163.7
L255.353 163.7
L257.888 171.532
L265.492 171.532
L268.027 179.364
L270.562 171.532
L273.097 195.028
L275.632 187.196
L278.167 195.028
L283.236 179.364
L285.771 179.364
L288.306 163.7
L290.841 163.7
L298.445 210.691
L300.98 218.523
L303.515 234.187
L308.585 249.85
L316.189 249.85
L318.724 234.187
L321.259 234.187
L323.794 218.523
L326.329 210.691
L331.398 210.691
L336.468 195.028
L339.003 210.691
L341.538 210.691
L349.142 187.196
L354.212 202.859
L361.816 202.859
L366.886 195.028
L369.421 195.028
L374.49 210.691
L377.025 210.691
L384.63 187.196
L387.165 171.532
L389.7 171.532
L399.839 202.859
L402.374 202.859
L404.909 218.523
L412.513 218.523
L420.118 195.028
L422.652 179.364
L425.187 195.028
L427.722 195.028
L430.257 179.364
L432.792 187.196
L435.327 179.364
L437.861 163.7
L440.396 171.532
L442.931 163.7
L445.466 171.532
L448.001 171.532
L450.536 155.869
L453.07 148.037
L455.605 155.869
L458.14 148.037
L460.675 163.7
L463.21 171.532
L468.279 155.869
L470.814 140.205
L478.419 116.71
L480.954 93.2143
L493.628 93.2143
L496.163 101.046
L498.698 101.046
L501.232 108.878
L506.302 108.878
L508.837 101.046
L521.511 101.046
L524.046 93.2143
L526.581 93.2143
L529.116 101.046
L534.185 101.046
L536.72 85.3825
L544.325 108.878
L551.929 108.878
L554.464 116.71
L556.999 116.71
L559.534 108.878
L562.068 108.878
L567.138 124.542
L569.673 124.542
L574.743 140.205
L577.278 132.373
L579.812 140.205
L582.347 124.542
L589.952 124.542
L595.021 108.878
L597.556 116.71
L600.091 108.878
L602.626 93.2143
L610.23 93.2143
L612.765 101.046
L615.3 101.046
L617.835 93.2143
L625.439 93.2143
L627.974 101.046
L630.509 101.046
L635.579 116.71
L640.648 116.71
L643.183 132.373
L645.718 140.205
L648.253 140.205
L650.788 132.373
L653.323 132.373
L658.392 116.71
L660.927 116.71
L663.462 108.878
L668.532 108.878
L673.601 124.542
L676.136 124.542
L678.671 140.205
L683.741 140.205
L688.81 155.869
L691.345 155.869
L693.88 163.7
L704.019 163.7
L706.554 155.869
L709.089 155.869
L711.624 163.7
L716.694 148.037
L729.368 148.037
L739.507 116.71
L742.042 124.542
L744.577 124.542
L747.112 140.205
L752.181 155.869
L754.716 155.869
L759.786 171.532
L762.321 163.7
L764.856 163.7
L767.39 155.869
L769.925 155.869
L777.53 179.364
L780.065 171.532
L787.669 171.532
L790.204 163.7
L795.274 163.7
L800.343 148.037
L815.552 148.037
L818.087 140.205
L820.622 124.542
L823.157 124.542
L825.692 116.71
L828.226 101.046
L833.296 101.046
L838.366 85.3825
L840.901 85.3825
L843.435 77.5508
L845.97 77.5508
L848.505 93.2143
L851.04 101.046
L851.04 101.046" style="fill:none;stroke:#66c2a5;stroke-linecap:square;stroke-width:0.75;"/>
   </g>
   <g id="patch_3">
    <path d="
M128.611 265.514
L851.04 265.514" style="fill:none;stroke:#000000;stroke-linecap:square;stroke-linejoin:miter;stroke-width:0.5;"/>
   </g>
   <g id="patch_4">
    <path d="
M128.611 265.514
L128.611 30.56" style="fill:none;stroke:#000000;stroke-linecap:square;stroke-linejoin:miter;stroke-width:0.5;"/>
   </g>
   <g id="matplotlib.axis_1">
    <g id="xtick_1">
     <g id="line2d_2">
      <path clip-path="url(#p7ae7bd9c5b)" d="
M128.611 265.514
L128.611 30.56" style="fill:none;stroke:#000000;stroke-dasharray:1.000000,3.000000;stroke-dashoffset:0.0;stroke-width:0.5;"/>
     </g>
     <g id="text_1">
      <!-- 2015-03-18 00:00:00 -->
      <defs>
       <path d="
M19.1875 8.29688
L53.6094 8.29688
L53.6094 0
L7.32812 0
L7.32812 8.29688
Q12.9375 14.1094 22.625 23.8906
Q32.3281 33.6875 34.8125 36.5312
Q39.5469 41.8438 41.4219 45.5312
Q43.3125 49.2188 43.3125 52.7812
Q43.3125 58.5938 39.2344 62.25
Q35.1562 65.9219 28.6094 65.9219
Q23.9688 65.9219 18.8125 64.3125
Q13.6719 62.7031 7.8125 59.4219
L7.8125 69.3906
Q13.7656 71.7812 18.9375 73
Q24.125 74.2188 28.4219 74.2188
Q39.75 74.2188 46.4844 68.5469
Q53.2188 62.8906 53.2188 53.4219
Q53.2188 48.9219 51.5312 44.8906
Q49.8594 40.875 45.4062 35.4062
Q44.1875 33.9844 37.6406 27.2188
Q31.1094 20.4531 19.1875 8.29688" id="BitstreamVeraSans-Roman-32"/>
       <path d="
M40.5781 39.3125
Q47.6562 37.7969 51.625 33
Q55.6094 28.2188 55.6094 21.1875
Q55.6094 10.4062 48.1875 4.48438
Q40.7656 -1.42188 27.0938 -1.42188
Q22.5156 -1.42188 17.6562 -0.515625
Q12.7969 0.390625 7.625 2.20312
L7.625 11.7188
Q11.7188 9.32812 16.5938 8.10938
Q21.4844 6.89062 26.8125 6.89062
Q36.0781 6.89062 40.9375 10.5469
Q45.7969 14.2031 45.7969 21.1875
Q45.7969 27.6406 41.2812 31.2656
Q36.7656 34.9062 28.7188 34.9062
L20.2188 34.9062
L20.2188 43.0156
L29.1094 43.0156
Q36.375 43.0156 40.2344 45.9219
Q44.0938 48.8281 44.0938 54.2969
Q44.0938 59.9062 40.1094 62.9062
Q36.1406 65.9219 28.7188 65.9219
Q24.6562 65.9219 20.0156 65.0312
Q15.375 64.1562 9.8125 62.3125
L9.8125 71.0938
Q15.4375 72.6562 20.3438 73.4375
Q25.25 74.2188 29.5938 74.2188
Q40.8281 74.2188 47.3594 69.1094
Q53.9062 64.0156 53.9062 55.3281
Q53.9062 49.2656 50.4375 45.0938
Q46.9688 40.9219 40.5781 39.3125" id="BitstreamVeraSans-Roman-33"/>
       <path d="
M31.7812 66.4062
Q24.1719 66.4062 20.3281 58.9062
Q16.5 51.4219 16.5 36.375
Q16.5 21.3906 20.3281 13.8906
Q24.1719 6.39062 31.7812 6.39062
Q39.4531 6.39062 43.2812 13.8906
Q47.125 21.3906 47.125 36.375
Q47.125 51.4219 43.2812 58.9062
Q39.4531 66.4062 31.7812 66.4062
M31.7812 74.2188
Q44.0469 74.2188 50.5156 64.5156
Q56.9844 54.8281 56.9844 36.375
Q56.9844 17.9688 50.5156 8.26562
Q44.0469 -1.42188 31.7812 -1.42188
Q19.5312 -1.42188 13.0625 8.26562
Q6.59375 17.9688 6.59375 36.375
Q6.59375 54.8281 13.0625 64.5156
Q19.5312 74.2188 31.7812 74.2188" id="BitstreamVeraSans-Roman-30"/>
       <path d="
M12.4062 8.29688
L28.5156 8.29688
L28.5156 63.9219
L10.9844 60.4062
L10.9844 69.3906
L28.4219 72.9062
L38.2812 72.9062
L38.2812 8.29688
L54.3906 8.29688
L54.3906 0
L12.4062 0
z
" id="BitstreamVeraSans-Roman-31"/>
       <path d="
M10.7969 72.9062
L49.5156 72.9062
L49.5156 64.5938
L19.8281 64.5938
L19.8281 46.7344
Q21.9688 47.4688 24.1094 47.8281
Q26.2656 48.1875 28.4219 48.1875
Q40.625 48.1875 47.75 41.5
Q54.8906 34.8125 54.8906 23.3906
Q54.8906 11.625 47.5625 5.09375
Q40.2344 -1.42188 26.9062 -1.42188
Q22.3125 -1.42188 17.5469 -0.640625
Q12.7969 0.140625 7.71875 1.70312
L7.71875 11.625
Q12.1094 9.23438 16.7969 8.0625
Q21.4844 6.89062 26.7031 6.89062
Q35.1562 6.89062 40.0781 11.3281
Q45.0156 15.7656 45.0156 23.3906
Q45.0156 31 40.0781 35.4375
Q35.1562 39.8906 26.7031 39.8906
Q22.75 39.8906 18.8125 39.0156
Q14.8906 38.1406 10.7969 36.2812
z
" id="BitstreamVeraSans-Roman-35"/>
       <path id="BitstreamVeraSans-Roman-20"/>
       <path d="
M31.7812 34.625
Q24.75 34.625 20.7188 30.8594
Q16.7031 27.0938 16.7031 20.5156
Q16.7031 13.9219 20.7188 10.1562
Q24.75 6.39062 31.7812 6.39062
Q38.8125 6.39062 42.8594 10.1719
Q46.9219 13.9688 46.9219 20.5156
Q46.9219 27.0938 42.8906 30.8594
Q38.875 34.625 31.7812 34.625
M21.9219 38.8125
Q15.5781 40.375 12.0312 44.7188
Q8.5 49.0781 8.5 55.3281
Q8.5 64.0625 14.7188 69.1406
Q20.9531 74.2188 31.7812 74.2188
Q42.6719 74.2188 48.875 69.1406
Q55.0781 64.0625 55.0781 55.3281
Q55.0781 49.0781 51.5312 44.7188
Q48 40.375 41.7031 38.8125
Q48.8281 37.1562 52.7969 32.3125
Q56.7812 27.4844 56.7812 20.5156
Q56.7812 9.90625 50.3125 4.23438
Q43.8438 -1.42188 31.7812 -1.42188
Q19.7344 -1.42188 13.25 4.23438
Q6.78125 9.90625 6.78125 20.5156
Q6.78125 27.4844 10.7812 32.3125
Q14.7969 37.1562 21.9219 38.8125
M18.3125 54.3906
Q18.3125 48.7344 21.8438 45.5625
Q25.3906 42.3906 31.7812 42.3906
Q38.1406 42.3906 41.7188 45.5625
Q45.3125 48.7344 45.3125 54.3906
Q45.3125 60.0625 41.7188 63.2344
Q38.1406 66.4062 31.7812 66.4062
Q25.3906 66.4062 21.8438 63.2344
Q18.3125 60.0625 18.3125 54.3906" id="BitstreamVeraSans-Roman-38"/>
       <path d="
M11.7188 12.4062
L22.0156 12.4062
L22.0156 0
L11.7188 0
z

M11.7188 51.7031
L22.0156 51.7031
L22.0156 39.3125
L11.7188 39.3125
z
" id="BitstreamVeraSans-Roman-3a"/>
       <path d="
M4.89062 31.3906
L31.2031 31.3906
L31.2031 23.3906
L4.89062 23.3906
z
" id="BitstreamVeraSans-Roman-2d"/>
      </defs>
      <g transform="translate(17.6807247071 344.735593161)rotate(-30.0)scale(0.12 -0.12)">
       <use xlink:href="#BitstreamVeraSans-Roman-32"/>
       <use x="63.623046875" xlink:href="#BitstreamVeraSans-Roman-30"/>
       <use x="127.24609375" xlink:href="#BitstreamVeraSans-Roman-31"/>
       <use x="190.869140625" xlink:href="#BitstreamVeraSans-Roman-35"/>
       <use x="254.4921875" xlink:href="#BitstreamVeraSans-Roman-2d"/>
       <use x="290.576171875" xlink:href="#BitstreamVeraSans-Roman-30"/>
       <use x="354.19921875" xlink:href="#BitstreamVeraSans-Roman-33"/>
       <use x="417.822265625" xlink:href="#BitstreamVeraSans-Roman-2d"/>
       <use x="453.90625" xlink:href="#BitstreamVeraSans-Roman-31"/>
       <use x="517.529296875" xlink:href="#BitstreamVeraSans-Roman-38"/>
       <use x="581.15234375" xlink:href="#BitstreamVeraSans-Roman-20"/>
       <use x="612.939453125" xlink:href="#BitstreamVeraSans-Roman-30"/>
       <use x="676.5625" xlink:href="#BitstreamVeraSans-Roman-30"/>
       <use x="740.185546875" xlink:href="#BitstreamVeraSans-Roman-3a"/>
       <use x="773.876953125" xlink:href="#BitstreamVeraSans-Roman-30"/>
       <use x="837.5" xlink:href="#BitstreamVeraSans-Roman-30"/>
       <use x="901.123046875" xlink:href="#BitstreamVeraSans-Roman-3a"/>
       <use x="934.814453125" xlink:href="#BitstreamVeraSans-Roman-30"/>
       <use x="998.4375" xlink:href="#BitstreamVeraSans-Roman-30"/>
      </g>
     </g>
    </g>
    <g id="xtick_2">
     <g id="line2d_3">
      <path clip-path="url(#p7ae7bd9c5b)" d="
M219.865 265.514
L219.865 30.56" style="fill:none;stroke:#000000;stroke-dasharray:1.000000,3.000000;stroke-dashoffset:0.0;stroke-width:0.5;"/>
     </g>
     <g id="text_2">
      <!-- 2015-03-18 06:00:00 -->
      <defs>
       <path d="
M33.0156 40.375
Q26.375 40.375 22.4844 35.8281
Q18.6094 31.2969 18.6094 23.3906
Q18.6094 15.5312 22.4844 10.9531
Q26.375 6.39062 33.0156 6.39062
Q39.6562 6.39062 43.5312 10.9531
Q47.4062 15.5312 47.4062 23.3906
Q47.4062 31.2969 43.5312 35.8281
Q39.6562 40.375 33.0156 40.375
M52.5938 71.2969
L52.5938 62.3125
Q48.875 64.0625 45.0938 64.9844
Q41.3125 65.9219 37.5938 65.9219
Q27.8281 65.9219 22.6719 59.3281
Q17.5312 52.7344 16.7969 39.4062
Q19.6719 43.6562 24.0156 45.9219
Q28.375 48.1875 33.5938 48.1875
Q44.5781 48.1875 50.9531 41.5156
Q57.3281 34.8594 57.3281 23.3906
Q57.3281 12.1562 50.6875 5.35938
Q44.0469 -1.42188 33.0156 -1.42188
Q20.3594 -1.42188 13.6719 8.26562
Q6.98438 17.9688 6.98438 36.375
Q6.98438 53.6562 15.1875 63.9375
Q23.3906 74.2188 37.2031 74.2188
Q40.9219 74.2188 44.7031 73.4844
Q48.4844 72.75 52.5938 71.2969" id="BitstreamVeraSans-Roman-36"/>
      </defs>
      <g transform="translate(108.934889462 344.735593161)rotate(-30.0)scale(0.12 -0.12)">
       <use xlink:href="#BitstreamVeraSans-Roman-32"/>
       <use x="63.623046875" xlink:href="#BitstreamVeraSans-Roman-30"/>
       <use x="127.24609375" xlink:href="#BitstreamVeraSans-Roman-31"/>
       <use x="190.869140625" xlink:href="#BitstreamVeraSans-Roman-35"/>
       <use x="254.4921875" xlink:href="#BitstreamVeraSans-Roman-2d"/>
       <use x="290.576171875" xlink:href="#BitstreamVeraSans-Roman-30"/>
       <use x="354.19921875" xlink:href="#BitstreamVeraSans-Roman-33"/>
       <use x="417.822265625" xlink:href="#BitstreamVeraSans-Roman-2d"/>
       <use x="453.90625" xlink:href="#BitstreamVeraSans-Roman-31"/>
       <use x="517.529296875" xlink:href="#BitstreamVeraSans-Roman-38"/>
       <use x="581.15234375" xlink:href="#BitstreamVeraSans-Roman-20"/>
       <use x="612.939453125" xlink:href="#BitstreamVeraSans-Roman-30"/>
       <use x="676.5625" xlink:href="#BitstreamVeraSans-Roman-36"/>
       <use x="740.185546875" xlink:href="#BitstreamVeraSans-Roman-3a"/>
       <use x="773.876953125" xlink:href="#BitstreamVeraSans-Roman-30"/>
       <use x="837.5" xlink:href="#BitstreamVeraSans-Roman-30"/>
       <use x="901.123046875" xlink:href="#BitstreamVeraSans-Roman-3a"/>
       <use x="934.814453125" xlink:href="#BitstreamVeraSans-Roman-30"/>
       <use x="998.4375" xlink:href="#BitstreamVeraSans-Roman-30"/>
      </g>
     </g>
    </g>
    <g id="xtick_3">
     <g id="line2d_4">
      <path clip-path="url(#p7ae7bd9c5b)" d="
M311.12 265.514
L311.12 30.56" style="fill:none;stroke:#000000;stroke-dasharray:1.000000,3.000000;stroke-dashoffset:0.0;stroke-width:0.5;"/>
     </g>
     <g id="text_3">
      <!-- 2015-03-18 12:00:00 -->
      <g transform="translate(200.189054218 344.735593161)rotate(-30.0)scale(0.12 -0.12)">
       <use xlink:href="#BitstreamVeraSans-Roman-32"/>
       <use x="63.623046875" xlink:href="#BitstreamVeraSans-Roman-30"/>
       <use x="127.24609375" xlink:href="#BitstreamVeraSans-Roman-31"/>
       <use x="190.869140625" xlink:href="#BitstreamVeraSans-Roman-35"/>
       <use x="254.4921875" xlink:href="#BitstreamVeraSans-Roman-2d"/>
       <use x="290.576171875" xlink:href="#BitstreamVeraSans-Roman-30"/>
       <use x="354.19921875" xlink:href="#BitstreamVeraSans-Roman-33"/>
       <use x="417.822265625" xlink:href="#BitstreamVeraSans-Roman-2d"/>
       <use x="453.90625" xlink:href="#BitstreamVeraSans-Roman-31"/>
       <use x="517.529296875" xlink:href="#BitstreamVeraSans-Roman-38"/>
       <use x="581.15234375" xlink:href="#BitstreamVeraSans-Roman-20"/>
       <use x="612.939453125" xlink:href="#BitstreamVeraSans-Roman-31"/>
       <use x="676.5625" xlink:href="#BitstreamVeraSans-Roman-32"/>
       <use x="740.185546875" xlink:href="#BitstreamVeraSans-Roman-3a"/>
       <use x="773.876953125" xlink:href="#BitstreamVeraSans-Roman-30"/>
       <use x="837.5" xlink:href="#BitstreamVeraSans-Roman-30"/>
       <use x="901.123046875" xlink:href="#BitstreamVeraSans-Roman-3a"/>
       <use x="934.814453125" xlink:href="#BitstreamVeraSans-Roman-30"/>
       <use x="998.4375" xlink:href="#BitstreamVeraSans-Roman-30"/>
      </g>
     </g>
    </g>
    <g id="xtick_4">
     <g id="line2d_5">
      <path clip-path="url(#p7ae7bd9c5b)" d="
M402.374 265.514
L402.374 30.56" style="fill:none;stroke:#000000;stroke-dasharray:1.000000,3.000000;stroke-dashoffset:0.0;stroke-width:0.5;"/>
     </g>
     <g id="text_4">
      <!-- 2015-03-18 18:00:00 -->
      <g transform="translate(291.443218914 344.735593161)rotate(-30.0)scale(0.12 -0.12)">
       <use xlink:href="#BitstreamVeraSans-Roman-32"/>
       <use x="63.623046875" xlink:href="#BitstreamVeraSans-Roman-30"/>
       <use x="127.24609375" xlink:href="#BitstreamVeraSans-Roman-31"/>
       <use x="190.869140625" xlink:href="#BitstreamVeraSans-Roman-35"/>
       <use x="254.4921875" xlink:href="#BitstreamVeraSans-Roman-2d"/>
       <use x="290.576171875" xlink:href="#BitstreamVeraSans-Roman-30"/>
       <use x="354.19921875" xlink:href="#BitstreamVeraSans-Roman-33"/>
       <use x="417.822265625" xlink:href="#BitstreamVeraSans-Roman-2d"/>
       <use x="453.90625" xlink:href="#BitstreamVeraSans-Roman-31"/>
       <use x="517.529296875" xlink:href="#BitstreamVeraSans-Roman-38"/>
       <use x="581.15234375" xlink:href="#BitstreamVeraSans-Roman-20"/>
       <use x="612.939453125" xlink:href="#BitstreamVeraSans-Roman-31"/>
       <use x="676.5625" xlink:href="#BitstreamVeraSans-Roman-38"/>
       <use x="740.185546875" xlink:href="#BitstreamVeraSans-Roman-3a"/>
       <use x="773.876953125" xlink:href="#BitstreamVeraSans-Roman-30"/>
       <use x="837.5" xlink:href="#BitstreamVeraSans-Roman-30"/>
       <use x="901.123046875" xlink:href="#BitstreamVeraSans-Roman-3a"/>
       <use x="934.814453125" xlink:href="#BitstreamVeraSans-Roman-30"/>
       <use x="998.4375" xlink:href="#BitstreamVeraSans-Roman-30"/>
      </g>
     </g>
    </g>
    <g id="xtick_5">
     <g id="line2d_6">
      <path clip-path="url(#p7ae7bd9c5b)" d="
M493.628 265.514
L493.628 30.56" style="fill:none;stroke:#000000;stroke-dasharray:1.000000,3.000000;stroke-dashoffset:0.0;stroke-width:0.5;"/>
     </g>
     <g id="text_5">
      <!-- 2015-03-19 00:00:00 -->
      <defs>
       <path d="
M10.9844 1.51562
L10.9844 10.5
Q14.7031 8.73438 18.5 7.8125
Q22.3125 6.89062 25.9844 6.89062
Q35.75 6.89062 40.8906 13.4531
Q46.0469 20.0156 46.7812 33.4062
Q43.9531 29.2031 39.5938 26.9531
Q35.25 24.7031 29.9844 24.7031
Q19.0469 24.7031 12.6719 31.3125
Q6.29688 37.9375 6.29688 49.4219
Q6.29688 60.6406 12.9375 67.4219
Q19.5781 74.2188 30.6094 74.2188
Q43.2656 74.2188 49.9219 64.5156
Q56.5938 54.8281 56.5938 36.375
Q56.5938 19.1406 48.4062 8.85938
Q40.2344 -1.42188 26.4219 -1.42188
Q22.7031 -1.42188 18.8906 -0.6875
Q15.0938 0.046875 10.9844 1.51562
M30.6094 32.4219
Q37.25 32.4219 41.125 36.9531
Q45.0156 41.5 45.0156 49.4219
Q45.0156 57.2812 41.125 61.8438
Q37.25 66.4062 30.6094 66.4062
Q23.9688 66.4062 20.0938 61.8438
Q16.2188 57.2812 16.2188 49.4219
Q16.2188 41.5 20.0938 36.9531
Q23.9688 32.4219 30.6094 32.4219" id="BitstreamVeraSans-Roman-39"/>
      </defs>
      <g transform="translate(382.697383669 344.735593161)rotate(-30.0)scale(0.12 -0.12)">
       <use xlink:href="#BitstreamVeraSans-Roman-32"/>
       <use x="63.623046875" xlink:href="#BitstreamVeraSans-Roman-30"/>
       <use x="127.24609375" xlink:href="#BitstreamVeraSans-Roman-31"/>
       <use x="190.869140625" xlink:href="#BitstreamVeraSans-Roman-35"/>
       <use x="254.4921875" xlink:href="#BitstreamVeraSans-Roman-2d"/>
       <use x="290.576171875" xlink:href="#BitstreamVeraSans-Roman-30"/>
       <use x="354.19921875" xlink:href="#BitstreamVeraSans-Roman-33"/>
       <use x="417.822265625" xlink:href="#BitstreamVeraSans-Roman-2d"/>
       <use x="453.90625" xlink:href="#BitstreamVeraSans-Roman-31"/>
       <use x="517.529296875" xlink:href="#BitstreamVeraSans-Roman-39"/>
       <use x="581.15234375" xlink:href="#BitstreamVeraSans-Roman-20"/>
       <use x="612.939453125" xlink:href="#BitstreamVeraSans-Roman-30"/>
       <use x="676.5625" xlink:href="#BitstreamVeraSans-Roman-30"/>
       <use x="740.185546875" xlink:href="#BitstreamVeraSans-Roman-3a"/>
       <use x="773.876953125" xlink:href="#BitstreamVeraSans-Roman-30"/>
       <use x="837.5" xlink:href="#BitstreamVeraSans-Roman-30"/>
       <use x="901.123046875" xlink:href="#BitstreamVeraSans-Roman-3a"/>
       <use x="934.814453125" xlink:href="#BitstreamVeraSans-Roman-30"/>
       <use x="998.4375" xlink:href="#BitstreamVeraSans-Roman-30"/>
      </g>
     </g>
    </g>
    <g id="xtick_6">
     <g id="line2d_7">
      <path clip-path="url(#p7ae7bd9c5b)" d="
M584.882 265.514
L584.882 30.56" style="fill:none;stroke:#000000;stroke-dasharray:1.000000,3.000000;stroke-dashoffset:0.0;stroke-width:0.5;"/>
     </g>
     <g id="text_6">
      <!-- 2015-03-19 06:00:00 -->
      <g transform="translate(473.951548365 344.735593161)rotate(-30.0)scale(0.12 -0.12)">
       <use xlink:href="#BitstreamVeraSans-Roman-32"/>
       <use x="63.623046875" xlink:href="#BitstreamVeraSans-Roman-30"/>
       <use x="127.24609375" xlink:href="#BitstreamVeraSans-Roman-31"/>
       <use x="190.869140625" xlink:href="#BitstreamVeraSans-Roman-35"/>
       <use x="254.4921875" xlink:href="#BitstreamVeraSans-Roman-2d"/>
       <use x="290.576171875" xlink:href="#BitstreamVeraSans-Roman-30"/>
       <use x="354.19921875" xlink:href="#BitstreamVeraSans-Roman-33"/>
       <use x="417.822265625" xlink:href="#BitstreamVeraSans-Roman-2d"/>
       <use x="453.90625" xlink:href="#BitstreamVeraSans-Roman-31"/>
       <use x="517.529296875" xlink:href="#BitstreamVeraSans-Roman-39"/>
       <use x="581.15234375" xlink:href="#BitstreamVeraSans-Roman-20"/>
       <use x="612.939453125" xlink:href="#BitstreamVeraSans-Roman-30"/>
       <use x="676.5625" xlink:href="#BitstreamVeraSans-Roman-36"/>
       <use x="740.185546875" xlink:href="#BitstreamVeraSans-Roman-3a"/>
       <use x="773.876953125" xlink:href="#BitstreamVeraSans-Roman-30"/>
       <use x="837.5" xlink:href="#BitstreamVeraSans-Roman-30"/>
       <use x="901.123046875" xlink:href="#BitstreamVeraSans-Roman-3a"/>
       <use x="934.814453125" xlink:href="#BitstreamVeraSans-Roman-30"/>
       <use x="998.4375" xlink:href="#BitstreamVeraSans-Roman-30"/>
      </g>
     </g>
    </g>
    <g id="xtick_7">
     <g id="line2d_8">
      <path clip-path="url(#p7ae7bd9c5b)" d="
M676.136 265.514
L676.136 30.56" style="fill:none;stroke:#000000;stroke-dasharray:1.000000,3.000000;stroke-dashoffset:0.0;stroke-width:0.5;"/>
     </g>
     <g id="text_7">
      <!-- 2015-03-19 12:00:00 -->
      <g transform="translate(565.20571312 344.735593161)rotate(-30.0)scale(0.12 -0.12)">
       <use xlink:href="#BitstreamVeraSans-Roman-32"/>
       <use x="63.623046875" xlink:href="#BitstreamVeraSans-Roman-30"/>
       <use x="127.24609375" xlink:href="#BitstreamVeraSans-Roman-31"/>
       <use x="190.869140625" xlink:href="#BitstreamVeraSans-Roman-35"/>
       <use x="254.4921875" xlink:href="#BitstreamVeraSans-Roman-2d"/>
       <use x="290.576171875" xlink:href="#BitstreamVeraSans-Roman-30"/>
       <use x="354.19921875" xlink:href="#BitstreamVeraSans-Roman-33"/>
       <use x="417.822265625" xlink:href="#BitstreamVeraSans-Roman-2d"/>
       <use x="453.90625" xlink:href="#BitstreamVeraSans-Roman-31"/>
       <use x="517.529296875" xlink:href="#BitstreamVeraSans-Roman-39"/>
       <use x="581.15234375" xlink:href="#BitstreamVeraSans-Roman-20"/>
       <use x="612.939453125" xlink:href="#BitstreamVeraSans-Roman-31"/>
       <use x="676.5625" xlink:href="#BitstreamVeraSans-Roman-32"/>
       <use x="740.185546875" xlink:href="#BitstreamVeraSans-Roman-3a"/>
       <use x="773.876953125" xlink:href="#BitstreamVeraSans-Roman-30"/>
       <use x="837.5" xlink:href="#BitstreamVeraSans-Roman-30"/>
       <use x="901.123046875" xlink:href="#BitstreamVeraSans-Roman-3a"/>
       <use x="934.814453125" xlink:href="#BitstreamVeraSans-Roman-30"/>
       <use x="998.4375" xlink:href="#BitstreamVeraSans-Roman-30"/>
      </g>
     </g>
    </g>
    <g id="xtick_8">
     <g id="line2d_9">
      <path clip-path="url(#p7ae7bd9c5b)" d="
M767.39 265.514
L767.39 30.56" style="fill:none;stroke:#000000;stroke-dasharray:1.000000,3.000000;stroke-dashoffset:0.0;stroke-width:0.5;"/>
     </g>
     <g id="text_8">
      <!-- 2015-03-19 18:00:00 -->
      <g transform="translate(656.459877875 344.735593161)rotate(-30.0)scale(0.12 -0.12)">
       <use xlink:href="#BitstreamVeraSans-Roman-32"/>
       <use x="63.623046875" xlink:href="#BitstreamVeraSans-Roman-30"/>
       <use x="127.24609375" xlink:href="#BitstreamVeraSans-Roman-31"/>
       <use x="190.869140625" xlink:href="#BitstreamVeraSans-Roman-35"/>
       <use x="254.4921875" xlink:href="#BitstreamVeraSans-Roman-2d"/>
       <use x="290.576171875" xlink:href="#BitstreamVeraSans-Roman-30"/>
       <use x="354.19921875" xlink:href="#BitstreamVeraSans-Roman-33"/>
       <use x="417.822265625" xlink:href="#BitstreamVeraSans-Roman-2d"/>
       <use x="453.90625" xlink:href="#BitstreamVeraSans-Roman-31"/>
       <use x="517.529296875" xlink:href="#BitstreamVeraSans-Roman-39"/>
       <use x="581.15234375" xlink:href="#BitstreamVeraSans-Roman-20"/>
       <use x="612.939453125" xlink:href="#BitstreamVeraSans-Roman-31"/>
       <use x="676.5625" xlink:href="#BitstreamVeraSans-Roman-38"/>
       <use x="740.185546875" xlink:href="#BitstreamVeraSans-Roman-3a"/>
       <use x="773.876953125" xlink:href="#BitstreamVeraSans-Roman-30"/>
       <use x="837.5" xlink:href="#BitstreamVeraSans-Roman-30"/>
       <use x="901.123046875" xlink:href="#BitstreamVeraSans-Roman-3a"/>
       <use x="934.814453125" xlink:href="#BitstreamVeraSans-Roman-30"/>
       <use x="998.4375" xlink:href="#BitstreamVeraSans-Roman-30"/>
      </g>
     </g>
    </g>
   </g>
   <g id="matplotlib.axis_2">
    <g id="ytick_1">
     <g id="line2d_10">
      <path clip-path="url(#p7ae7bd9c5b)" d="
M128.611 265.514
L851.04 265.514" style="fill:none;stroke:#000000;stroke-dasharray:1.000000,3.000000;stroke-dashoffset:0.0;stroke-width:0.5;"/>
     </g>
     <g id="text_9">
      <!-- 0.75 -->
      <defs>
       <path d="
M10.6875 12.4062
L21 12.4062
L21 0
L10.6875 0
z
" id="BitstreamVeraSans-Roman-2e"/>
       <path d="
M8.20312 72.9062
L55.0781 72.9062
L55.0781 68.7031
L28.6094 0
L18.3125 0
L43.2188 64.5938
L8.20312 64.5938
z
" id="BitstreamVeraSans-Roman-37"/>
      </defs>
      <g transform="translate(95.7318208823 268.825002776)scale(0.12 -0.12)">
       <use xlink:href="#BitstreamVeraSans-Roman-30"/>
       <use x="63.623046875" xlink:href="#BitstreamVeraSans-Roman-2e"/>
       <use x="95.41015625" xlink:href="#BitstreamVeraSans-Roman-37"/>
       <use x="159.033203125" xlink:href="#BitstreamVeraSans-Roman-35"/>
      </g>
     </g>
    </g>
    <g id="ytick_2">
     <g id="line2d_11">
      <path clip-path="url(#p7ae7bd9c5b)" d="
M128.611 226.355
L851.04 226.355" style="fill:none;stroke:#000000;stroke-dasharray:1.000000,3.000000;stroke-dashoffset:0.0;stroke-width:0.5;"/>
     </g>
     <g id="text_10">
      <!-- 0.80 -->
      <g transform="translate(95.4805708823 229.66604398)scale(0.12 -0.12)">
       <use xlink:href="#BitstreamVeraSans-Roman-30"/>
       <use x="63.623046875" xlink:href="#BitstreamVeraSans-Roman-2e"/>
       <use x="95.41015625" xlink:href="#BitstreamVeraSans-Roman-38"/>
       <use x="159.033203125" xlink:href="#BitstreamVeraSans-Roman-30"/>
      </g>
     </g>
    </g>
    <g id="ytick_3">
     <g id="line2d_12">
      <path clip-path="url(#p7ae7bd9c5b)" d="
M128.611 187.196
L851.04 187.196" style="fill:none;stroke:#000000;stroke-dasharray:1.000000,3.000000;stroke-dashoffset:0.0;stroke-width:0.5;"/>
     </g>
     <g id="text_11">
      <!-- 0.85 -->
      <g transform="translate(95.7318208823 190.507085184)scale(0.12 -0.12)">
       <use xlink:href="#BitstreamVeraSans-Roman-30"/>
       <use x="63.623046875" xlink:href="#BitstreamVeraSans-Roman-2e"/>
       <use x="95.41015625" xlink:href="#BitstreamVeraSans-Roman-38"/>
       <use x="159.033203125" xlink:href="#BitstreamVeraSans-Roman-35"/>
      </g>
     </g>
    </g>
    <g id="ytick_4">
     <g id="line2d_13">
      <path clip-path="url(#p7ae7bd9c5b)" d="
M128.611 148.037
L851.04 148.037" style="fill:none;stroke:#000000;stroke-dasharray:1.000000,3.000000;stroke-dashoffset:0.0;stroke-width:0.5;"/>
     </g>
     <g id="text_12">
      <!-- 0.90 -->
      <g transform="translate(95.4805708823 151.348126388)scale(0.12 -0.12)">
       <use xlink:href="#BitstreamVeraSans-Roman-30"/>
       <use x="63.623046875" xlink:href="#BitstreamVeraSans-Roman-2e"/>
       <use x="95.41015625" xlink:href="#BitstreamVeraSans-Roman-39"/>
       <use x="159.033203125" xlink:href="#BitstreamVeraSans-Roman-30"/>
      </g>
     </g>
    </g>
    <g id="ytick_5">
     <g id="line2d_14">
      <path clip-path="url(#p7ae7bd9c5b)" d="
M128.611 108.878
L851.04 108.878" style="fill:none;stroke:#000000;stroke-dasharray:1.000000,3.000000;stroke-dashoffset:0.0;stroke-width:0.5;"/>
     </g>
     <g id="text_13">
      <!-- 0.95 -->
      <g transform="translate(95.7318208823 112.189167592)scale(0.12 -0.12)">
       <use xlink:href="#BitstreamVeraSans-Roman-30"/>
       <use x="63.623046875" xlink:href="#BitstreamVeraSans-Roman-2e"/>
       <use x="95.41015625" xlink:href="#BitstreamVeraSans-Roman-39"/>
       <use x="159.033203125" xlink:href="#BitstreamVeraSans-Roman-35"/>
      </g>
     </g>
    </g>
    <g id="ytick_6">
     <g id="line2d_15">
      <path clip-path="url(#p7ae7bd9c5b)" d="
M128.611 69.719
L851.04 69.719" style="fill:none;stroke:#000000;stroke-dasharray:1.000000,3.000000;stroke-dashoffset:0.0;stroke-width:0.5;"/>
     </g>
     <g id="text_14">
      <!-- 1.00 -->
      <g transform="translate(96.0074458823 73.030208796)scale(0.12 -0.12)">
       <use xlink:href="#BitstreamVeraSans-Roman-31"/>
       <use x="63.623046875" xlink:href="#BitstreamVeraSans-Roman-2e"/>
       <use x="95.41015625" xlink:href="#BitstreamVeraSans-Roman-30"/>
       <use x="159.033203125" xlink:href="#BitstreamVeraSans-Roman-30"/>
      </g>
     </g>
    </g>
    <g id="ytick_7">
     <g id="line2d_16">
      <path clip-path="url(#p7ae7bd9c5b)" d="
M128.611 30.56
L851.04 30.56" style="fill:none;stroke:#000000;stroke-dasharray:1.000000,3.000000;stroke-dashoffset:0.0;stroke-width:0.5;"/>
     </g>
     <g id="text_15">
      <!-- 1.05 -->
      <g transform="translate(96.2586958823 33.87125)scale(0.12 -0.12)">
       <use xlink:href="#BitstreamVeraSans-Roman-31"/>
       <use x="63.623046875" xlink:href="#BitstreamVeraSans-Roman-2e"/>
       <use x="95.41015625" xlink:href="#BitstreamVeraSans-Roman-30"/>
       <use x="159.033203125" xlink:href="#BitstreamVeraSans-Roman-35"/>
      </g>
     </g>
    </g>
    <g id="text_16">
     <!-- water_temperature (degree_Celsius) -->
     <defs>
      <path d="
M36.8125 13.9688
Q36.8125 10.25 35.4219 7.42188
Q34.0312 4.59375 31.4844 2.6875
Q28.9531 0.78125 25.4844 -0.171875
Q22.0156 -1.125 17.9688 -1.125
Q15.5312 -1.125 13.2969 -0.75
Q11.0781 -0.390625 9.3125 0.171875
Q7.5625 0.734375 6.39062 1.3125
Q5.21875 1.90625 4.6875 2.42188
Q4.15625 2.9375 3.85938 4.03125
Q3.5625 5.125 3.5625 7.28125
Q3.5625 8.6875 3.65625 9.54688
Q3.76562 10.4062 3.95312 10.9062
Q4.15625 11.4219 4.4375 11.5938
Q4.73438 11.7656 5.17188 11.7656
Q5.71875 11.7656 6.76562 11.1562
Q7.8125 10.5469 9.375 9.8125
Q10.9375 9.07812 13.0156 8.4375
Q15.0938 7.8125 17.7188 7.8125
Q19.3906 7.8125 20.6719 8.15625
Q21.9688 8.5 22.9219 9.125
Q23.875 9.76562 24.3594 10.7344
Q24.8594 11.7188 24.8594 12.9844
Q24.8594 14.4531 23.9531 15.5
Q23.0469 16.5469 21.5469 17.3281
Q20.0625 18.1094 18.1875 18.7969
Q16.3125 19.4844 14.3281 20.3125
Q12.3594 21.1406 10.4688 22.2188
Q8.59375 23.2969 7.09375 24.8594
Q5.60938 26.4219 4.70312 28.6094
Q3.8125 30.8125 3.8125 33.8906
Q3.8125 37.0156 5.03125 39.625
Q6.25 42.2344 8.54688 44.0938
Q10.8438 45.9531 14.1406 46.9688
Q17.4375 48 21.5312 48
Q23.5781 48 25.5 47.7031
Q27.4375 47.4062 29 46.9688
Q30.5625 46.5312 31.6406 46.0156
Q32.7188 45.5156 33.1719 45.1406
Q33.6406 44.7812 33.8281 44.4062
Q34.0312 44.0469 34.125 43.5312
Q34.2344 43.0156 34.2969 42.25
Q34.375 41.5 34.375 40.375
Q34.375 39.0625 34.2969 38.2344
Q34.2344 37.4062 34.0625 36.9062
Q33.8906 36.4219 33.5938 36.25
Q33.2969 36.0781 32.9062 36.0781
Q32.4688 36.0781 31.5312 36.5938
Q30.6094 37.1094 29.2188 37.6875
Q27.8281 38.2812 26 38.7969
Q24.1719 39.3125 21.8281 39.3125
Q20.1719 39.3125 18.9375 38.9688
Q17.7188 38.625 16.9375 37.9844
Q16.1562 37.3594 15.7656 36.5
Q15.375 35.6406 15.375 34.6719
Q15.375 33.1562 16.2969 32.125
Q17.2344 31.1094 18.75 30.3281
Q20.2656 29.5469 22.1875 28.8594
Q24.125 28.1719 26.0938 27.3594
Q28.0781 26.5625 30 25.4844
Q31.9375 24.4219 33.4531 22.8594
Q34.9688 21.2969 35.8906 19.1094
Q36.8125 16.9375 36.8125 13.9688" id="Calibri-Bold-73"/>
      <path d="
M18.4531 1.65625
Q18.4531 1.17188 18.1562 0.796875
Q17.875 0.4375 17.1562 0.1875
Q16.4531 -0.046875 15.2812 -0.171875
Q14.1094 -0.296875 12.3125 -0.296875
Q10.5 -0.296875 9.32812 -0.171875
Q8.15625 -0.046875 7.4375 0.1875
Q6.73438 0.4375 6.4375 0.796875
Q6.15625 1.17188 6.15625 1.65625
L6.15625 65.875
Q6.15625 66.3594 6.4375 66.75
Q6.73438 67.1406 7.4375 67.4062
Q8.15625 67.6719 9.32812 67.8125
Q10.5 67.9688 12.3125 67.9688
Q14.1094 67.9688 15.2812 67.8125
Q16.4531 67.6719 17.1562 67.4062
Q17.875 67.1406 18.1562 66.75
Q18.4531 66.3594 18.4531 65.875
z
" id="Calibri-Bold-6c"/>
      <path d="
M18.4531 1.65625
Q18.4531 1.17188 18.1562 0.796875
Q17.875 0.4375 17.1562 0.1875
Q16.4531 -0.046875 15.2812 -0.171875
Q14.1094 -0.296875 12.3125 -0.296875
Q10.5 -0.296875 9.32812 -0.171875
Q8.15625 -0.046875 7.4375 0.1875
Q6.73438 0.4375 6.4375 0.796875
Q6.15625 1.17188 6.15625 1.65625
L6.15625 45.125
Q6.15625 45.6094 6.4375 45.9688
Q6.73438 46.3438 7.4375 46.6094
Q8.15625 46.875 9.32812 47.0156
Q10.5 47.1719 12.3125 47.1719
Q14.1094 47.1719 15.2812 47.0156
Q16.4531 46.875 17.1562 46.6094
Q17.875 46.3438 18.1562 45.9688
Q18.4531 45.6094 18.4531 45.125
z

M19.3906 59.9688
Q19.3906 56.25 17.875 54.8281
Q16.3594 53.4219 12.25 53.4219
Q8.10938 53.4219 6.65625 54.7812
Q5.21875 56.1562 5.21875 59.7188
Q5.21875 63.4219 6.70312 64.8594
Q8.20312 66.3125 12.3594 66.3125
Q16.4531 66.3125 17.9219 64.9219
Q19.3906 63.5312 19.3906 59.9688" id="Calibri-Bold-69"/>
      <path d="
M47.4688 1.65625
Q47.4688 1.125 47.2188 0.75
Q46.9688 0.390625 46.375 0.140625
Q45.7969 -0.09375 44.7969 -0.1875
Q43.7969 -0.296875 42.3281 -0.296875
Q40.7656 -0.296875 39.7812 -0.1875
Q38.8125 -0.09375 38.2031 0.140625
Q37.5938 0.390625 37.3281 0.75
Q37.0625 1.125 37.0625 1.65625
L37.0625 6.5
Q33.6875 2.875 30 0.875
Q26.3125 -1.125 21.8281 -1.125
Q16.8438 -1.125 13.4062 0.796875
Q9.96875 2.73438 7.78125 6
Q5.60938 9.28125 4.625 13.6406
Q3.65625 18.0156 3.65625 22.8594
Q3.65625 28.6562 4.90625 33.2969
Q6.15625 37.9375 8.54688 41.2031
Q10.9375 44.4844 14.5 46.2344
Q18.0625 48 22.7031 48
Q26.375 48 29.3438 46.5
Q32.3281 45.0156 35.25 42.1406
L35.25 65.7188
Q35.25 66.2188 35.5156 66.6094
Q35.7969 67 36.5 67.2656
Q37.2031 67.5312 38.375 67.6719
Q39.5469 67.8281 41.3594 67.8281
Q43.1719 67.8281 44.3438 67.6719
Q45.5156 67.5312 46.1875 67.2656
Q46.875 67 47.1719 66.6094
Q47.4688 66.2188 47.4688 65.7188
z

M35.25 30.7656
Q32.625 34.0781 30.2031 35.8281
Q27.7812 37.5938 25.1406 37.5938
Q22.75 37.5938 21.0156 36.3906
Q19.2812 35.2031 18.2344 33.2031
Q17.1875 31.2031 16.6719 28.7344
Q16.1562 26.2656 16.1562 23.6875
Q16.1562 20.9531 16.5938 18.3594
Q17.0469 15.7656 18.0469 13.7344
Q19.0469 11.7188 20.7031 10.5
Q22.3594 9.28125 24.9062 9.28125
Q26.1719 9.28125 27.3594 9.64062
Q28.5625 10.0156 29.8125 10.8438
Q31.0625 11.6719 32.375 13.0156
Q33.6875 14.3594 35.25 16.3125
z
" id="Calibri-Bold-64"/>
      <path d="
M75.4375 1.65625
Q75.4375 1.17188 75.1406 0.796875
Q74.8594 0.4375 74.1719 0.1875
Q73.4844 -0.046875 72.3125 -0.171875
Q71.1406 -0.296875 69.3438 -0.296875
Q67.4844 -0.296875 66.3125 -0.171875
Q65.1406 -0.046875 64.4219 0.1875
Q63.7188 0.4375 63.4531 0.796875
Q63.1875 1.17188 63.1875 1.65625
L63.1875 27.4844
Q63.1875 29.6875 62.7656 31.4844
Q62.3594 33.2969 61.5 34.5938
Q60.6406 35.8906 59.3438 36.5938
Q58.0625 37.3125 56.25 37.3125
Q54.0469 37.3125 51.7969 35.5938
Q49.5625 33.8906 46.9219 30.6094
L46.9219 1.65625
Q46.9219 1.17188 46.625 0.796875
Q46.3438 0.4375 45.625 0.1875
Q44.9219 -0.046875 43.75 -0.171875
Q42.5781 -0.296875 40.8281 -0.296875
Q39.0156 -0.296875 37.8438 -0.171875
Q36.6719 -0.046875 35.9531 0.1875
Q35.25 0.4375 34.9531 0.796875
Q34.6719 1.17188 34.6719 1.65625
L34.6719 27.4844
Q34.6719 29.6875 34.25 31.4844
Q33.8438 33.2969 33 34.5938
Q32.1719 35.8906 30.8594 36.5938
Q29.5469 37.3125 27.7812 37.3125
Q25.5312 37.3125 23.2812 35.5938
Q21.0469 33.8906 18.4531 30.6094
L18.4531 1.65625
Q18.4531 1.17188 18.1562 0.796875
Q17.875 0.4375 17.1562 0.1875
Q16.4531 -0.046875 15.2812 -0.171875
Q14.1094 -0.296875 12.3125 -0.296875
Q10.5 -0.296875 9.32812 -0.171875
Q8.15625 -0.046875 7.4375 0.1875
Q6.73438 0.4375 6.4375 0.796875
Q6.15625 1.17188 6.15625 1.65625
L6.15625 45.2188
Q6.15625 45.7031 6.39062 46.0625
Q6.64062 46.4375 7.26562 46.6719
Q7.90625 46.9219 8.90625 47.0469
Q9.90625 47.1719 11.4219 47.1719
Q12.9844 47.1719 14.0156 47.0469
Q15.0469 46.9219 15.5938 46.6719
Q16.1562 46.4375 16.4062 46.0625
Q16.6562 45.7031 16.6562 45.2188
L16.6562 40.1875
Q20.2656 44.0938 23.8438 46.0469
Q27.4375 48 31.3438 48
Q34.0312 48 36.1719 47.4375
Q38.3281 46.875 40.0156 45.8281
Q41.7031 44.7812 42.9219 43.3125
Q44.1406 41.8438 44.9688 40.0469
Q46.9219 42.1406 48.7969 43.6562
Q50.6875 45.1719 52.5156 46.125
Q54.3438 47.0781 56.1719 47.5312
Q58.0156 48 59.9062 48
Q64.2656 48 67.2344 46.5312
Q70.2188 45.0625 72.0469 42.5469
Q73.875 40.0469 74.6562 36.6719
Q75.4375 33.2969 75.4375 29.5469
z
" id="Calibri-Bold-6d"/>
      <path d="
M25.875 26.2656
Q25.875 20.75 25.2344 15.4062
Q24.6094 10.0625 23.3125 4.8125
Q22.0156 -0.4375 20.0938 -5.59375
Q18.1719 -10.75 15.5312 -15.8281
Q15.375 -16.1562 15.0156 -16.4219
Q14.6562 -16.7031 13.9844 -16.875
Q13.3281 -17.0469 12.3438 -17.1406
Q11.375 -17.2344 10.0156 -17.2344
Q8.01562 -17.2344 6.90625 -17.0312
Q5.8125 -16.8438 5.26562 -16.4531
Q4.73438 -16.0625 4.73438 -15.5
Q4.73438 -14.9375 5.03125 -14.1562
Q9.07812 -4.59375 11.2031 5.53125
Q13.3281 15.6719 13.3281 26.375
Q13.3281 37.0156 11.2188 47.1406
Q9.125 57.2812 4.98438 66.7969
Q4.73438 67.4375 4.8125 67.9688
Q4.89062 68.5 5.5 68.8438
Q6.10938 69.1875 7.20312 69.3594
Q8.29688 69.5312 10.1094 69.5312
Q11.625 69.5312 12.5938 69.4531
Q13.5781 69.3906 14.2031 69.2188
Q14.8438 69.0469 15.1094 68.8438
Q15.375 68.6562 15.5312 68.4062
Q20.6094 58.1562 23.2344 47.6719
Q25.875 37.2031 25.875 26.2656" id="Calibri-Bold-29"/>
      <path d="
M46.3906 24.7031
Q46.3906 22.4688 45.3906 21.3906
Q44.3906 20.3125 42.625 20.3125
L16.1094 20.3125
Q16.1094 17.5312 16.7656 15.25
Q17.4375 12.9844 18.875 11.3906
Q20.3125 9.8125 22.5781 8.98438
Q24.8594 8.15625 28.0312 8.15625
Q31.25 8.15625 33.6875 8.60938
Q36.1406 9.07812 37.9219 9.64062
Q39.7031 10.2031 40.875 10.6719
Q42.0469 11.1406 42.7812 11.1406
Q43.2188 11.1406 43.5 10.9688
Q43.7969 10.7969 43.9844 10.3438
Q44.1875 9.90625 44.2656 9.09375
Q44.3438 8.29688 44.3438 7.07812
Q44.3438 6 44.2812 5.25
Q44.2344 4.5 44.1406 3.95312
Q44.0469 3.42188 43.8438 3.04688
Q43.6562 2.6875 43.3281 2.34375
Q43.0156 2 41.5938 1.40625
Q40.1875 0.828125 37.9844 0.265625
Q35.7969 -0.296875 32.9531 -0.703125
Q30.125 -1.125 26.9062 -1.125
Q21.0938 -1.125 16.7188 0.34375
Q12.3594 1.8125 9.42188 4.78125
Q6.5 7.76562 5.04688 12.2969
Q3.60938 16.8438 3.60938 22.9531
Q3.60938 28.7656 5.125 33.4219
Q6.64062 38.0938 9.51562 41.3281
Q12.4062 44.5781 16.5312 46.2812
Q20.6562 48 25.8281 48
Q31.2969 48 35.1719 46.3906
Q39.0625 44.7812 41.5469 41.9219
Q44.0469 39.0625 45.2188 35.1562
Q46.3906 31.25 46.3906 26.6562
z

M34.4688 28.2188
Q34.625 33.4062 32.3906 36.3594
Q30.1719 39.3125 25.5312 39.3125
Q23.1875 39.3125 21.4531 38.4219
Q19.7344 37.5469 18.5781 36.0625
Q17.4375 34.5781 16.8281 32.5469
Q16.2188 30.5156 16.1094 28.2188
z
" id="Calibri-Bold-65"/>
      <path d="
M50.0938 -13.2812
Q50.0938 -15.7188 49.625 -16.7656
Q49.1719 -17.8281 48.0938 -17.8281
L1.70312 -17.8281
Q0.59375 -17.8281 0.125 -16.7969
Q-0.34375 -15.7656 -0.34375 -13.3281
Q-0.34375 -10.8906 0.125 -9.8125
Q0.59375 -8.73438 1.70312 -8.73438
L48.0938 -8.73438
Q49.1719 -8.73438 49.625 -9.76562
Q50.0938 -10.7969 50.0938 -13.2812" id="Calibri-Bold-5f"/>
      <path d="
M47.4688 1.65625
Q47.4688 1.17188 47.2188 0.796875
Q46.9688 0.4375 46.3594 0.1875
Q45.75 -0.046875 44.75 -0.171875
Q43.75 -0.296875 42.2344 -0.296875
Q40.625 -0.296875 39.625 -0.171875
Q38.625 -0.046875 38.0312 0.1875
Q37.4531 0.4375 37.2031 0.796875
Q36.9688 1.17188 36.9688 1.65625
L36.9688 6.6875
Q33.3438 2.78125 29.6094 0.828125
Q25.875 -1.125 21.875 -1.125
Q17.3906 -1.125 14.3281 0.34375
Q11.2812 1.8125 9.39062 4.34375
Q7.51562 6.89062 6.70312 10.2344
Q5.90625 13.5781 5.90625 18.5625
L5.90625 45.2188
Q5.90625 45.7031 6.17188 46.0625
Q6.45312 46.4375 7.15625 46.6719
Q7.85938 46.9219 9.04688 47.0469
Q10.25 47.1719 12.0156 47.1719
Q13.8125 47.1719 14.9844 47.0469
Q16.1562 46.9219 16.8594 46.6719
Q17.5781 46.4375 17.875 46.0625
Q18.1719 45.7031 18.1719 45.2188
L18.1719 20.6094
Q18.1719 17.1875 18.6094 15.375
Q19.0469 13.5781 19.9375 12.2812
Q20.8438 10.9844 22.2344 10.2812
Q23.6406 9.57812 25.4844 9.57812
Q27.8281 9.57812 30.1875 11.2812
Q32.5625 12.9844 35.25 16.2656
L35.25 45.2188
Q35.25 45.7031 35.5156 46.0625
Q35.7969 46.4375 36.5 46.6719
Q37.2031 46.9219 38.375 47.0469
Q39.5469 47.1719 41.3594 47.1719
Q43.1719 47.1719 44.3438 47.0469
Q45.5156 46.9219 46.1875 46.6719
Q46.875 46.4375 47.1719 46.0625
Q47.4688 45.7031 47.4688 45.2188
z
" id="Calibri-Bold-75"/>
      <path d="
M31.9375 5.95312
Q31.9375 3.8125 31.6562 2.65625
Q31.3906 1.51562 30.9531 1.04688
Q30.5156 0.59375 29.6562 0.21875
Q28.8125 -0.140625 27.6562 -0.40625
Q26.5156 -0.6875 25.1719 -0.828125
Q23.8281 -0.984375 22.4688 -0.984375
Q18.7969 -0.984375 16.1094 -0.046875
Q13.4219 0.875 11.6562 2.79688
Q9.90625 4.73438 9.07812 7.65625
Q8.25 10.5938 8.25 14.5938
L8.25 36.9219
L3.03125 36.9219
Q2.09375 36.9219 1.60938 38.0625
Q1.125 39.2031 1.125 41.8906
Q1.125 43.3125 1.25 44.2812
Q1.375 45.2656 1.60938 45.8281
Q1.85938 46.3906 2.21875 46.625
Q2.59375 46.875 3.07812 46.875
L8.25 46.875
L8.25 56.5938
Q8.25 57.0781 8.51562 57.4688
Q8.79688 57.8594 9.5 58.125
Q10.2031 58.4062 11.3906 58.5156
Q12.5938 58.6406 14.3594 58.6406
Q16.1562 58.6406 17.3594 58.5156
Q18.5625 58.4062 19.2344 58.125
Q19.9219 57.8594 20.2188 57.4688
Q20.5156 57.0781 20.5156 56.5938
L20.5156 46.875
L29.9844 46.875
Q30.4688 46.875 30.8281 46.625
Q31.2031 46.3906 31.4375 45.8281
Q31.6875 45.2656 31.8125 44.2812
Q31.9375 43.3125 31.9375 41.8906
Q31.9375 39.2031 31.4375 38.0625
Q30.9531 36.9219 30.0312 36.9219
L20.5156 36.9219
L20.5156 16.4531
Q20.5156 12.8906 21.625 11.1094
Q22.75 9.32812 25.6406 9.32812
Q26.6094 9.32812 27.3906 9.5
Q28.1719 9.67188 28.7812 9.89062
Q29.3906 10.1094 29.7969 10.2812
Q30.2188 10.4531 30.5625 10.4531
Q30.8594 10.4531 31.125 10.2812
Q31.3906 10.1094 31.5312 9.59375
Q31.6875 9.07812 31.8125 8.20312
Q31.9375 7.32812 31.9375 5.95312" id="Calibri-Bold-74"/>
      <path d="
M72.7969 45.3125
Q72.7969 44.7812 72.6562 44
Q72.5156 43.2188 72.125 41.75
L60.5 2.34375
Q60.25 1.51562 59.8594 1
Q59.4688 0.484375 58.6562 0.1875
Q57.8594 -0.09375 56.375 -0.1875
Q54.8906 -0.296875 52.4844 -0.296875
Q50.0938 -0.296875 48.5781 -0.171875
Q47.0781 -0.046875 46.2188 0.234375
Q45.3594 0.53125 44.9688 1.04688
Q44.5781 1.5625 44.3906 2.34375
L37.0625 28.8125
L36.9688 29.25
L36.8594 28.8125
L30.125 2.34375
Q29.9375 1.51562 29.5625 1
Q29.2031 0.484375 28.3125 0.1875
Q27.4375 -0.09375 25.9219 -0.1875
Q24.4219 -0.296875 22.0156 -0.296875
Q19.5781 -0.296875 18.0938 -0.171875
Q16.6094 -0.046875 15.75 0.234375
Q14.8906 0.53125 14.5 1.04688
Q14.1094 1.5625 13.9219 2.34375
L2.39062 41.75
Q1.95312 43.1719 1.82812 43.9688
Q1.70312 44.7812 1.70312 45.3125
Q1.70312 45.7969 1.96875 46.1562
Q2.25 46.5312 2.95312 46.75
Q3.65625 46.9688 4.85938 47.0625
Q6.0625 47.1719 7.85938 47.1719
Q9.8125 47.1719 11.0312 47.0625
Q12.25 46.9688 12.9375 46.7188
Q13.625 46.4844 13.8906 46.0625
Q14.1562 45.6562 14.3125 45.0625
L22.9531 13.0938
L23.0469 12.5
L23.1406 13.0938
L31.25 45.0625
Q31.3906 45.6562 31.7031 46.0625
Q32.0312 46.4844 32.6562 46.7188
Q33.2969 46.9688 34.4375 47.0625
Q35.5938 47.1719 37.4062 47.1719
Q39.2031 47.1719 40.3281 47.0469
Q41.4531 46.9219 42.1094 46.7031
Q42.7812 46.4844 43.0469 46.1094
Q43.3125 45.75 43.4531 45.2656
L52.1562 13.0312
L52.2969 12.5
L52.3906 13.0938
L60.6875 45.0625
Q60.7969 45.6562 61.0781 46.0625
Q61.375 46.4844 62.0625 46.7188
Q62.75 46.9688 63.9219 47.0625
Q65.0938 47.1719 66.8906 47.1719
Q68.7031 47.1719 69.8438 47.0625
Q71 46.9688 71.6562 46.75
Q72.3125 46.5312 72.5469 46.1562
Q72.7969 45.7969 72.7969 45.3125" id="Calibri-Bold-77"/>
      <path d="
M43.2656 1.51562
Q43.2656 0.828125 42.7656 0.4375
Q42.2812 0.046875 41.2344 -0.125
Q40.1875 -0.296875 38.1406 -0.296875
Q35.9375 -0.296875 34.9375 -0.125
Q33.9375 0.046875 33.5156 0.4375
Q33.1094 0.828125 33.1094 1.51562
L33.1094 4.98438
Q30.4219 2.09375 26.9688 0.484375
Q23.5312 -1.125 19.3438 -1.125
Q15.875 -1.125 12.9688 -0.21875
Q10.0625 0.6875 7.9375 2.46875
Q5.8125 4.25 4.64062 6.875
Q3.46875 9.51562 3.46875 13.0312
Q3.46875 16.8438 4.95312 19.6562
Q6.45312 22.4688 9.40625 24.2969
Q12.3594 26.125 16.75 27
Q21.1406 27.875 26.9531 27.875
L31.2031 27.875
L31.2031 30.5156
Q31.2031 32.5625 30.7812 34.0938
Q30.375 35.6406 29.4219 36.6719
Q28.4688 37.7031 26.875 38.1875
Q25.2969 38.6719 22.9531 38.6719
Q19.875 38.6719 17.4531 37.9844
Q15.0469 37.3125 13.1875 36.4688
Q11.3281 35.6406 10.0781 34.9531
Q8.84375 34.2812 8.0625 34.2812
Q7.51562 34.2812 7.09375 34.625
Q6.6875 34.9688 6.42188 35.5938
Q6.15625 36.2344 6 37.1562
Q5.85938 38.0938 5.85938 39.2031
Q5.85938 40.7188 6.09375 41.5938
Q6.34375 42.4844 7.03125 43.1875
Q7.71875 43.8906 9.42188 44.75
Q11.1406 45.6094 13.4219 46.3438
Q15.7188 47.0781 18.4219 47.5312
Q21.1406 48 24.0312 48
Q29.1562 48 32.7812 47
Q36.4219 46 38.7656 43.9219
Q41.1094 41.8438 42.1875 38.5625
Q43.2656 35.2969 43.2656 30.8125
z

M31.2031 20.1719
L26.5156 20.1719
Q23.5312 20.1719 21.4375 19.7188
Q19.3438 19.2812 18.0156 18.4062
Q16.7031 17.5312 16.0938 16.2812
Q15.4844 15.0469 15.4844 13.4219
Q15.4844 10.6875 17.2188 9.125
Q18.9531 7.5625 22.0156 7.5625
Q24.6094 7.5625 26.7812 8.875
Q28.9531 10.2031 31.2031 12.75
z
" id="Calibri-Bold-61"/>
      <path d="
M50 24.0781
Q50 18.2656 48.75 13.5938
Q47.5156 8.9375 45.1094 5.65625
Q42.7188 2.39062 39.1562 0.625
Q35.5938 -1.125 31 -1.125
Q29.1094 -1.125 27.5156 -0.75
Q25.9219 -0.390625 24.4375 0.359375
Q22.9531 1.125 21.4844 2.25
Q20.0156 3.375 18.4531 4.89062
L18.4531 -15.625
Q18.4531 -16.1094 18.1562 -16.5
Q17.875 -16.8906 17.1562 -17.1562
Q16.4531 -17.4375 15.2812 -17.5781
Q14.1094 -17.7188 12.3125 -17.7188
Q10.5 -17.7188 9.32812 -17.5781
Q8.15625 -17.4375 7.4375 -17.1562
Q6.73438 -16.8906 6.4375 -16.5
Q6.15625 -16.1094 6.15625 -15.625
L6.15625 45.2188
Q6.15625 45.7031 6.39062 46.0625
Q6.64062 46.4375 7.25 46.6719
Q7.85938 46.9219 8.85938 47.0469
Q9.85938 47.1719 11.375 47.1719
Q12.8438 47.1719 13.8438 47.0469
Q14.8438 46.9219 15.4531 46.6719
Q16.0625 46.4375 16.2969 46.0625
Q16.5469 45.7031 16.5469 45.2188
L16.5469 40.0938
Q18.4531 42.0469 20.2812 43.5312
Q22.125 45.0156 24.0156 46.0156
Q25.9219 47.0156 27.9531 47.5
Q29.9844 48 32.2812 48
Q37.0625 48 40.4219 46.1094
Q43.7969 44.2344 45.9219 40.9688
Q48.0469 37.7031 49.0156 33.3438
Q50 29 50 24.0781
M37.2031 23.1875
Q37.2031 25.9844 36.7812 28.5469
Q36.375 31.1094 35.375 33.1094
Q34.375 35.1094 32.7344 36.2969
Q31.1094 37.5 28.6562 37.5
Q27.4375 37.5 26.2344 37.125
Q25.0469 36.7656 23.7969 35.9375
Q22.5625 35.1094 21.2344 33.7812
Q19.9219 32.4688 18.4531 30.5156
L18.4531 16.1562
Q21.0469 12.8906 23.3906 11.1094
Q25.7344 9.32812 28.2656 9.32812
Q30.6719 9.32812 32.3438 10.5469
Q34.0312 11.7656 35.1094 13.7344
Q36.1875 15.7188 36.6875 18.2031
Q37.2031 20.7031 37.2031 23.1875" id="Calibri-Bold-70"/>
      <path d="
M26.125 66.7969
Q22.0156 57.2812 19.9219 47.1406
Q17.8281 37.0156 17.8281 26.375
Q17.8281 15.6719 19.9531 5.57812
Q22.0781 -4.5 26.0781 -14.1562
Q26.375 -14.9375 26.375 -15.5
Q26.375 -16.0625 25.8281 -16.4531
Q25.2969 -16.8438 24.1875 -17.0312
Q23.0938 -17.2344 21.1406 -17.2344
Q19.7812 -17.2344 18.7969 -17.1406
Q17.8281 -17.0469 17.1562 -16.875
Q16.5 -16.7031 16.125 -16.4219
Q15.7656 -16.1562 15.625 -15.8281
Q12.9844 -10.75 11.0312 -5.59375
Q9.07812 -0.4375 7.78125 4.8125
Q6.5 10.0625 5.85938 15.4062
Q5.21875 20.75 5.21875 26.2656
Q5.21875 31.7344 5.875 37.0781
Q6.54688 42.4375 7.85938 47.6875
Q9.1875 52.9375 11.1094 58.1094
Q13.0312 63.2812 15.625 68.4062
Q15.7188 68.6562 16.0156 68.8438
Q16.3125 69.0469 16.8906 69.2188
Q17.4844 69.3906 18.4844 69.4531
Q19.4844 69.5312 21.0469 69.5312
Q22.7969 69.5312 23.9219 69.3594
Q25.0469 69.1875 25.625 68.8438
Q26.2188 68.5 26.2969 67.9688
Q26.375 67.4375 26.125 66.7969" id="Calibri-Bold-28"/>
      <path d="
M34.125 41.1562
Q34.125 39.4062 34.0312 38.2812
Q33.9375 37.1562 33.7344 36.5156
Q33.5469 35.8906 33.2188 35.6406
Q32.9062 35.4062 32.4219 35.4062
Q32.0312 35.4062 31.5469 35.5781
Q31.0625 35.75 30.4375 35.9375
Q29.8281 36.1406 29.0938 36.2969
Q28.375 36.4688 27.4844 36.4688
Q26.4688 36.4688 25.4375 36.0469
Q24.4219 35.6406 23.3125 34.7656
Q22.2188 33.8906 21.0156 32.4219
Q19.8281 30.9531 18.4531 28.8125
L18.4531 1.65625
Q18.4531 1.17188 18.1562 0.796875
Q17.875 0.4375 17.1562 0.1875
Q16.4531 -0.046875 15.2812 -0.171875
Q14.1094 -0.296875 12.3125 -0.296875
Q10.5 -0.296875 9.32812 -0.171875
Q8.15625 -0.046875 7.4375 0.1875
Q6.73438 0.4375 6.4375 0.796875
Q6.15625 1.17188 6.15625 1.65625
L6.15625 45.2188
Q6.15625 45.7031 6.39062 46.0625
Q6.64062 46.4375 7.26562 46.6719
Q7.90625 46.9219 8.90625 47.0469
Q9.90625 47.1719 11.4219 47.1719
Q12.9844 47.1719 14.0156 47.0469
Q15.0469 46.9219 15.5938 46.6719
Q16.1562 46.4375 16.4062 46.0625
Q16.6562 45.7031 16.6562 45.2188
L16.6562 39.7969
Q18.3594 42.2344 19.875 43.8125
Q21.3906 45.4062 22.75 46.3281
Q24.125 47.2656 25.4844 47.625
Q26.8594 48 28.2188 48
Q28.8594 48 29.5938 47.9219
Q30.3281 47.8594 31.1094 47.6875
Q31.8906 47.5156 32.4688 47.2969
Q33.0625 47.0781 33.3281 46.8281
Q33.5938 46.5781 33.7188 46.2812
Q33.8438 46 33.9375 45.4844
Q34.0312 44.9688 34.0781 43.9375
Q34.125 42.9219 34.125 41.1562" id="Calibri-Bold-72"/>
      <path d="
M50.5938 9.57812
Q50.5938 8.34375 50.5156 7.48438
Q50.4375 6.64062 50.2812 6.03125
Q50.1406 5.42188 49.8906 4.98438
Q49.6562 4.54688 49.1094 3.98438
Q48.5781 3.42188 47.0469 2.53125
Q45.5156 1.65625 43.2812 0.84375
Q41.0625 0.046875 38.2031 -0.484375
Q35.3594 -1.03125 32.0312 -1.03125
Q25.5312 -1.03125 20.3125 0.96875
Q15.0938 2.98438 11.4219 6.95312
Q7.76562 10.9375 5.8125 16.8906
Q3.85938 22.8594 3.85938 30.7656
Q3.85938 38.8125 6 45.0625
Q8.15625 51.3125 12.0156 55.5625
Q15.875 59.8125 21.2656 62
Q26.6562 64.2031 33.1562 64.2031
Q35.7969 64.2031 38.2344 63.7656
Q40.6719 63.3281 42.75 62.625
Q44.8281 61.9219 46.4844 60.9844
Q48.1406 60.0625 48.7969 59.3906
Q49.4688 58.7344 49.7031 58.2969
Q49.9531 57.8594 50.0938 57.1719
Q50.25 56.5 50.3125 55.5625
Q50.3906 54.6406 50.3906 53.2656
Q50.3906 51.8125 50.2969 50.7812
Q50.2031 49.75 49.9531 49.1094
Q49.7031 48.4844 49.3594 48.1875
Q49.0312 47.9062 48.5781 47.9062
Q47.8594 47.9062 46.7344 48.75
Q45.6094 49.6094 43.8281 50.6562
Q42.0469 51.7031 39.5781 52.5625
Q37.1094 53.4219 33.6875 53.4219
Q29.9375 53.4219 26.9844 51.875
Q24.0312 50.3438 21.9531 47.4844
Q19.875 44.625 18.7969 40.5781
Q17.7188 36.5312 17.7188 31.4531
Q17.7188 25.875 18.8594 21.7969
Q20.0156 17.7188 22.1406 15.0781
Q24.2656 12.4531 27.2656 11.1562
Q30.2812 9.85938 34.0312 9.85938
Q37.4531 9.85938 39.9375 10.6562
Q42.4375 11.4688 44.2188 12.4375
Q46 13.4219 47.1406 14.2031
Q48.2969 14.9844 48.9219 14.9844
Q49.4219 14.9844 49.7031 14.7812
Q50 14.5938 50.1875 14
Q50.3906 13.4219 50.4844 12.375
Q50.5938 11.3281 50.5938 9.57812" id="Calibri-Bold-43"/>
      <path id="Calibri-Bold-20"/>
      <path d="
M45.4062 42.1875
Q45.4062 39.8438 44.875 38.7188
Q44.3438 37.5938 43.5625 37.5938
L38.4219 37.5938
Q39.5 36.4219 39.9688 34.9375
Q40.4375 33.4531 40.4375 31.8438
Q40.4375 28.0312 39.1562 25.0781
Q37.8906 22.125 35.5156 20.0938
Q33.1562 18.0625 29.8125 17.0156
Q26.4688 15.9688 22.3594 15.9688
Q20.2656 15.9688 18.3594 16.4844
Q16.4531 17 15.4375 17.6719
Q14.8438 17.0469 14.375 16.1562
Q13.9219 15.2812 13.9219 14.2031
Q13.9219 12.7969 15.1562 11.8906
Q16.4062 10.9844 18.6562 10.8906
L29.25 10.5
Q32.9531 10.3594 35.8594 9.45312
Q38.7656 8.54688 40.7344 6.90625
Q42.7188 5.28125 43.7656 2.98438
Q44.8281 0.6875 44.8281 -2.25
Q44.8281 -5.46875 43.4062 -8.32812
Q42 -11.1875 39.1562 -13.2812
Q36.3281 -15.375 32.0469 -16.5938
Q27.7812 -17.8281 22.0781 -17.8281
Q16.5 -17.8281 12.5625 -16.9375
Q8.64062 -16.0625 6.125 -14.5
Q3.60938 -12.9375 2.45312 -10.7656
Q1.3125 -8.59375 1.3125 -6
Q1.3125 -4.39062 1.73438 -2.92188
Q2.15625 -1.46875 2.95312 -0.125
Q3.76562 1.21875 4.9375 2.4375
Q6.10938 3.65625 7.625 4.78125
Q5.51562 5.90625 4.35938 7.82812
Q3.21875 9.76562 3.21875 12.0625
Q3.21875 14.9375 4.53125 17.2969
Q5.85938 19.6719 7.95312 21.5781
Q6.25 23.2969 5.21875 25.6875
Q4.20312 28.0781 4.20312 31.6406
Q4.20312 35.4531 5.54688 38.4531
Q6.89062 41.4531 9.28125 43.5312
Q11.6719 45.6094 14.9844 46.7031
Q18.3125 47.7969 22.3125 47.7969
Q24.3594 47.7969 26.2344 47.5469
Q28.125 47.3125 29.7344 46.875
L43.5625 46.875
Q44.3906 46.875 44.8906 45.7969
Q45.4062 44.7344 45.4062 42.1875
M29.6406 31.8906
Q29.6406 35.4062 27.6875 37.3594
Q25.7344 39.3125 22.1719 39.3125
Q20.3594 39.3125 18.9844 38.7031
Q17.625 38.0938 16.7188 37.0312
Q15.8281 35.9844 15.375 34.5938
Q14.9375 33.2031 14.9375 31.6875
Q14.9375 28.375 16.8906 26.4375
Q18.8438 24.5156 22.3125 24.5156
Q24.1719 24.5156 25.5312 25.0938
Q26.9062 25.6875 27.8125 26.7031
Q28.7188 27.7344 29.1719 29.0781
Q29.6406 30.4219 29.6406 31.8906
M32.5156 -2.875
Q32.5156 -0.6875 30.75 0.484375
Q29 1.65625 25.9219 1.76562
L17.1875 2
Q15.9219 1.07812 15.1562 0.21875
Q14.4062 -0.640625 13.9375 -1.42188
Q13.4844 -2.20312 13.3281 -2.92188
Q13.1875 -3.65625 13.1875 -4.4375
Q13.1875 -6.89062 15.6406 -8.15625
Q18.1094 -9.42188 22.6094 -9.42188
Q25.3906 -9.42188 27.2969 -8.85938
Q29.2031 -8.29688 30.375 -7.375
Q31.5469 -6.45312 32.0312 -5.29688
Q32.5156 -4.15625 32.5156 -2.875" id="Calibri-Bold-67"/>
     </defs>
     <g transform="translate(87.9846333823 254.903907638)rotate(-90.0)scale(0.14 -0.14)">
      <use xlink:href="#Calibri-Bold-77"/>
      <use x="74.51171875" xlink:href="#Calibri-Bold-61"/>
      <use x="123.876953125" xlink:href="#Calibri-Bold-74"/>
      <use x="158.544921875" xlink:href="#Calibri-Bold-65"/>
      <use x="208.88671875" xlink:href="#Calibri-Bold-72"/>
      <use x="244.43359375" xlink:href="#Calibri-Bold-5f"/>
      <use x="294.23828125" xlink:href="#Calibri-Bold-74"/>
      <use x="328.90625" xlink:href="#Calibri-Bold-65"/>
      <use x="379.248046875" xlink:href="#Calibri-Bold-6d"/>
      <use x="460.595703125" xlink:href="#Calibri-Bold-70"/>
      <use x="514.2578125" xlink:href="#Calibri-Bold-65"/>
      <use x="564.599609375" xlink:href="#Calibri-Bold-72"/>
      <use x="600.146484375" xlink:href="#Calibri-Bold-61"/>
      <use x="649.51171875" xlink:href="#Calibri-Bold-74"/>
      <use x="684.1796875" xlink:href="#Calibri-Bold-75"/>
      <use x="737.841796875" xlink:href="#Calibri-Bold-72"/>
      <use x="773.388671875" xlink:href="#Calibri-Bold-65"/>
      <use x="823.73046875" xlink:href="#Calibri-Bold-20"/>
      <use x="846.337890625" xlink:href="#Calibri-Bold-28"/>
      <use x="877.490234375" xlink:href="#Calibri-Bold-64"/>
      <use x="931.15234375" xlink:href="#Calibri-Bold-65"/>
      <use x="981.494140625" xlink:href="#Calibri-Bold-67"/>
      <use x="1028.90625" xlink:href="#Calibri-Bold-72"/>
      <use x="1064.453125" xlink:href="#Calibri-Bold-65"/>
      <use x="1114.79492188" xlink:href="#Calibri-Bold-65"/>
      <use x="1165.13671875" xlink:href="#Calibri-Bold-5f"/>
      <use x="1214.94140625" xlink:href="#Calibri-Bold-43"/>
      <use x="1267.87109375" xlink:href="#Calibri-Bold-65"/>
      <use x="1318.21289062" xlink:href="#Calibri-Bold-6c"/>
      <use x="1342.7734375" xlink:href="#Calibri-Bold-73"/>
      <use x="1382.66601562" xlink:href="#Calibri-Bold-69"/>
      <use x="1407.2265625" xlink:href="#Calibri-Bold-75"/>
      <use x="1460.88867188" xlink:href="#Calibri-Bold-73"/>
      <use x="1500.78125" xlink:href="#Calibri-Bold-29"/>
     </g>
    </g>
   </g>
   <g id="text_17">
    <!-- Toledo Low Service Pump Station -->
    <defs>
     <path d="
M20.3125 0
L6.59375 0
L6.59375 51.8594
L19.3438 51.8594
L19.3438 44.4844
Q22.6094 49.7031 25.2188 51.3594
Q27.8281 53.0312 31.1562 53.0312
Q35.8438 53.0312 40.1875 50.4375
L35.9375 38.4844
Q32.4688 40.7188 29.5 40.7188
Q26.6094 40.7188 24.6094 39.125
Q22.6094 37.5469 21.4531 33.3906
Q20.3125 29.25 20.3125 16.0156
z
" id="Arial-BoldMT-72"/>
     <path d="
M52.3906 36.5312
L38.875 34.0781
Q38.1875 38.1406 35.7656 40.1875
Q33.3438 42.2344 29.5 42.2344
Q24.3594 42.2344 21.3125 38.6875
Q18.2656 35.1562 18.2656 26.8594
Q18.2656 17.625 21.3594 13.8125
Q24.4688 10.0156 29.6875 10.0156
Q33.5938 10.0156 36.0781 12.2344
Q38.5781 14.4531 39.5938 19.875
L53.0781 17.5781
Q50.9844 8.29688 45.0156 3.5625
Q39.0625 -1.17188 29.0469 -1.17188
Q17.6719 -1.17188 10.9062 6
Q4.15625 13.1875 4.15625 25.875
Q4.15625 38.7188 10.9375 45.875
Q17.7188 53.0312 29.2969 53.0312
Q38.7656 53.0312 44.3594 48.9531
Q49.9531 44.875 52.3906 36.5312" id="Arial-BoldMT-63"/>
     <path d="
M54.7344 0
L42 0
L42 7.625
Q38.8125 3.17188 34.4844 1
Q30.1719 -1.17188 25.7812 -1.17188
Q16.8438 -1.17188 10.4688 6.03125
Q4.10938 13.2344 4.10938 26.125
Q4.10938 39.3125 10.2969 46.1719
Q16.5 53.0312 25.9844 53.0312
Q34.6719 53.0312 41.0156 45.7969
L41.0156 71.5781
L54.7344 71.5781
z

M18.1094 27.0469
Q18.1094 18.75 20.4062 15.0469
Q23.7344 9.67188 29.6875 9.67188
Q34.4219 9.67188 37.7344 13.6875
Q41.0625 17.7188 41.0625 25.7344
Q41.0625 34.6719 37.8438 38.5938
Q34.625 42.5312 29.5938 42.5312
Q24.7031 42.5312 21.4062 38.6406
Q18.1094 34.7656 18.1094 27.0469" id="Arial-BoldMT-64"/>
     <path d="
M37.2031 16.5
L50.875 14.2031
Q48.25 6.6875 42.5469 2.75
Q36.8594 -1.17188 28.3281 -1.17188
Q14.7969 -1.17188 8.29688 7.67188
Q3.17188 14.75 3.17188 25.5312
Q3.17188 38.4219 9.90625 45.7188
Q16.6562 53.0312 26.9531 53.0312
Q38.5312 53.0312 45.2188 45.3906
Q51.9062 37.75 51.6094 21.9688
L17.2344 21.9688
Q17.3906 15.875 20.5625 12.4688
Q23.7344 9.07812 28.4688 9.07812
Q31.6875 9.07812 33.875 10.8281
Q36.0781 12.5938 37.2031 16.5
M37.9844 30.375
Q37.8438 36.3281 34.9062 39.4219
Q31.9844 42.5312 27.7812 42.5312
Q23.2969 42.5312 20.3594 39.2656
Q17.4375 35.9844 17.4844 30.375
z
" id="Arial-BoldMT-65"/>
     <path d="
M41.3125 0
L41.3125 7.76562
Q38.4844 3.60938 33.8594 1.21875
Q29.25 -1.17188 24.125 -1.17188
Q18.8906 -1.17188 14.7344 1.125
Q10.5938 3.42188 8.73438 7.5625
Q6.89062 11.7188 6.89062 19.0469
L6.89062 51.8594
L20.6094 51.8594
L20.6094 28.0312
Q20.6094 17.0938 21.3594 14.625
Q22.125 12.1562 24.125 10.7188
Q26.125 9.28125 29.2031 9.28125
Q32.7188 9.28125 35.5 11.2031
Q38.2812 13.1406 39.2969 15.9844
Q40.3281 18.8438 40.3281 29.9844
L40.3281 51.8594
L54.0469 51.8594
L54.0469 0
z
" id="Arial-BoldMT-75"/>
     <path d="
M30.9531 51.8594
L30.9531 40.9219
L21.5781 40.9219
L21.5781 20.0156
Q21.5781 13.6719 21.8438 12.625
Q22.125 11.5781 23.0781 10.8906
Q24.0312 10.2031 25.3906 10.2031
Q27.2969 10.2031 30.9062 11.5312
L32.0781 0.875
Q27.2969 -1.17188 21.2344 -1.17188
Q17.5312 -1.17188 14.5469 0.0625
Q11.5781 1.3125 10.1875 3.29688
Q8.79688 5.28125 8.25 8.64062
Q7.8125 11.0312 7.8125 18.3125
L7.8125 40.9219
L1.51562 40.9219
L1.51562 51.8594
L7.8125 51.8594
L7.8125 62.1562
L21.5781 70.1719
L21.5781 51.8594
z
" id="Arial-BoldMT-74"/>
     <path d="
M7.67188 0
L7.67188 71
L22.125 71
L22.125 12.0625
L58.0625 12.0625
L58.0625 0
z
" id="Arial-BoldMT-4c"/>
     <path id="Arial-BoldMT-20"/>
     <path d="
M17.4375 36.0312
L4.98438 38.2812
Q7.07812 45.7969 12.2031 49.4062
Q17.3281 53.0312 27.4375 53.0312
Q36.625 53.0312 41.1094 50.8594
Q45.6094 48.6875 47.4375 45.3438
Q49.2656 42 49.2656 33.0625
L49.125 17.0469
Q49.125 10.2031 49.7812 6.95312
Q50.4375 3.71875 52.25 0
L38.6719 0
Q38.1406 1.375 37.3594 4.04688
Q37.0156 5.28125 36.8594 5.67188
Q33.3438 2.25 29.3438 0.53125
Q25.3438 -1.17188 20.7969 -1.17188
Q12.7969 -1.17188 8.17188 3.17188
Q3.5625 7.51562 3.5625 14.1562
Q3.5625 18.5625 5.65625 22
Q7.76562 25.4375 11.5469 27.2656
Q15.3281 29.1094 22.4688 30.4688
Q32.0781 32.2812 35.7969 33.8438
L35.7969 35.2031
Q35.7969 39.1562 33.8438 40.8438
Q31.8906 42.5312 26.4688 42.5312
Q22.7969 42.5312 20.75 41.0938
Q18.7031 39.6562 17.4375 36.0312
M35.7969 24.9062
Q33.1562 24.0312 27.4375 22.7969
Q21.7344 21.5781 19.9688 20.4062
Q17.2812 18.5 17.2812 15.5781
Q17.2812 12.7031 19.4219 10.5938
Q21.5781 8.5 24.9062 8.5
Q28.6094 8.5 31.9844 10.9375
Q34.4688 12.7969 35.25 15.4844
Q35.7969 17.2344 35.7969 22.1719
z
" id="Arial-BoldMT-61"/>
     <path d="
M16.8438 0
L0.4375 51.8594
L13.7656 51.8594
L23.4844 17.875
L32.4219 51.8594
L45.6562 51.8594
L54.2969 17.875
L64.2031 51.8594
L77.7344 51.8594
L61.0781 0
L47.9062 0
L38.9688 33.3438
L30.1719 0
z
" id="Arial-BoldMT-77"/>
     <path d="
M6.78125 51.8594
L19.5781 51.8594
L19.5781 44.2344
Q22.0781 48.1406 26.3125 50.5781
Q30.5625 53.0312 35.75 53.0312
Q44.7812 53.0312 51.0781 45.9531
Q57.375 38.875 57.375 26.2188
Q57.375 13.2344 51.0156 6.03125
Q44.6719 -1.17188 35.6406 -1.17188
Q31.3438 -1.17188 27.8438 0.53125
Q24.3594 2.25 20.5156 6.39062
L20.5156 -19.7344
L6.78125 -19.7344
z

M20.3594 26.8125
Q20.3594 18.0625 23.8281 13.8906
Q27.2969 9.71875 32.2812 9.71875
Q37.0625 9.71875 40.2344 13.5469
Q43.4062 17.3906 43.4062 26.125
Q43.4062 34.2812 40.125 38.2344
Q36.8594 42.1875 32.0312 42.1875
Q27 42.1875 23.6719 38.2969
Q20.3594 34.4219 20.3594 26.8125" id="Arial-BoldMT-70"/>
     <path d="
M7.17188 0
L7.17188 71.5781
L20.9062 71.5781
L20.9062 0
z
" id="Arial-BoldMT-6c"/>
     <path d="
M6.15625 51.8594
L18.7969 51.8594
L18.7969 44.7812
Q25.5938 53.0312 34.9688 53.0312
Q39.9375 53.0312 43.5938 50.9688
Q47.2656 48.9219 49.6094 44.7812
Q53.0312 48.9219 56.9844 50.9688
Q60.9375 53.0312 65.4375 53.0312
Q71.1406 53.0312 75.0938 50.7031
Q79.0469 48.3906 81 43.8906
Q82.4219 40.5781 82.4219 33.1562
L82.4219 0
L68.7031 0
L68.7031 29.6406
Q68.7031 37.3594 67.2812 39.5938
Q65.375 42.5312 61.4219 42.5312
Q58.5469 42.5312 56 40.7656
Q53.4688 39.0156 52.3438 35.625
Q51.2188 32.2344 51.2188 24.9062
L51.2188 0
L37.5 0
L37.5 28.4219
Q37.5 35.9844 36.7656 38.1719
Q36.0312 40.375 34.4844 41.4531
Q32.9531 42.5312 30.3281 42.5312
Q27.1562 42.5312 24.6094 40.8125
Q22.0781 39.1094 20.9688 35.8906
Q19.875 32.6719 19.875 25.2031
L19.875 0
L6.15625 0
z
" id="Arial-BoldMT-6d"/>
     <path d="
M54.3438 0
L40.625 0
L40.625 26.4688
Q40.625 34.8594 39.75 37.3281
Q38.875 39.7969 36.8906 41.1562
Q34.9062 42.5312 32.125 42.5312
Q28.5625 42.5312 25.7344 40.5781
Q22.9062 38.625 21.8438 35.3906
Q20.7969 32.1719 20.7969 23.4844
L20.7969 0
L7.07812 0
L7.07812 51.8594
L19.8281 51.8594
L19.8281 44.2344
Q26.6094 53.0312 36.9219 53.0312
Q41.4531 53.0312 45.2031 51.3906
Q48.9688 49.75 50.8906 47.2031
Q52.8281 44.6719 53.5781 41.4531
Q54.3438 38.2344 54.3438 32.2344
z
" id="Arial-BoldMT-6e"/>
     <path d="
M4 26.6562
Q4 33.5 7.375 39.8906
Q10.75 46.2969 16.9219 49.6562
Q23.0938 53.0312 30.7188 53.0312
Q42.4844 53.0312 50 45.3906
Q57.5156 37.75 57.5156 26.0781
Q57.5156 14.3125 49.9219 6.5625
Q42.3281 -1.17188 30.8125 -1.17188
Q23.6875 -1.17188 17.2188 2.04688
Q10.75 5.28125 7.375 11.5
Q4 17.7188 4 26.6562
M18.0625 25.9219
Q18.0625 18.2188 21.7188 14.1094
Q25.3906 10.0156 30.7656 10.0156
Q36.1406 10.0156 39.7656 14.1094
Q43.4062 18.2188 43.4062 26.0312
Q43.4062 33.6406 39.7656 37.7344
Q36.1406 41.8438 30.7656 41.8438
Q25.3906 41.8438 21.7188 37.7344
Q18.0625 33.6406 18.0625 25.9219" id="Arial-BoldMT-6f"/>
     <path d="
M7.17188 58.8906
L7.17188 71.5781
L20.9062 71.5781
L20.9062 58.8906
z

M7.17188 0
L7.17188 51.8594
L20.9062 51.8594
L20.9062 0
z
" id="Arial-BoldMT-69"/>
     <path d="
M23.3906 0
L23.3906 59.4688
L2.15625 59.4688
L2.15625 71.5781
L59.0312 71.5781
L59.0312 59.4688
L37.8438 59.4688
L37.8438 0
z
" id="Arial-BoldMT-54"/>
     <path d="
M7.28125 0
L7.28125 71.5781
L30.4688 71.5781
Q43.6562 71.5781 47.6562 70.5156
Q53.8125 68.8906 57.9531 63.5
Q62.1094 58.1094 62.1094 49.5625
Q62.1094 42.9688 59.7188 38.4688
Q57.3281 33.9844 53.6406 31.4219
Q49.9531 28.8594 46.1406 28.0312
Q40.9688 27 31.1562 27
L21.7344 27
L21.7344 0
z

M21.7344 59.4688
L21.7344 39.1562
L29.6406 39.1562
Q38.1875 39.1562 41.0625 40.2812
Q43.9531 41.4062 45.5781 43.7969
Q47.2188 46.1875 47.2188 49.3594
Q47.2188 53.2656 44.9219 55.7969
Q42.625 58.3438 39.1094 58.9844
Q36.5312 59.4688 28.7188 59.4688
z
" id="Arial-BoldMT-50"/>
     <path d="
M3.60938 23.2969
L17.6719 24.6562
Q18.9531 17.5781 22.8281 14.25
Q26.7031 10.9375 33.2969 10.9375
Q40.2812 10.9375 43.8125 13.8906
Q47.3594 16.8438 47.3594 20.7969
Q47.3594 23.3438 45.875 25.125
Q44.3906 26.9062 40.6719 28.2188
Q38.1406 29.1094 29.1094 31.3438
Q17.4844 34.2344 12.7969 38.4219
Q6.20312 44.3438 6.20312 52.8281
Q6.20312 58.2969 9.29688 63.0625
Q12.4062 67.8281 18.2344 70.3125
Q24.0781 72.7969 32.3281 72.7969
Q45.7969 72.7969 52.6094 66.8906
Q59.4219 60.9844 59.7656 51.125
L45.3125 50.4844
Q44.3906 56 41.3281 58.4219
Q38.2812 60.8438 32.1719 60.8438
Q25.875 60.8438 22.3125 58.25
Q20.0156 56.5938 20.0156 53.8125
Q20.0156 51.2656 22.1719 49.4688
Q24.9062 47.1719 35.4531 44.6719
Q46 42.1875 51.0469 39.5156
Q56.1094 36.8594 58.9531 32.25
Q61.8125 27.6406 61.8125 20.8438
Q61.8125 14.7031 58.3906 9.32812
Q54.9844 3.95312 48.7344 1.34375
Q42.4844 -1.26562 33.1562 -1.26562
Q19.5781 -1.26562 12.2969 5
Q5.03125 11.2812 3.60938 23.2969" id="Arial-BoldMT-53"/>
     <path d="
M21.4375 0
L0.53125 51.8594
L14.9375 51.8594
L24.7031 25.3906
L27.5469 16.5469
Q28.6562 19.9219 28.9531 21
Q29.6406 23.1875 30.4219 25.3906
L40.2812 51.8594
L54.3906 51.8594
L33.7969 0
z
" id="Arial-BoldMT-76"/>
    </defs>
    <g transform="translate(362.055597941 25.56)scale(0.16 -0.16)">
     <use xlink:href="#Arial-BoldMT-54"/>
     <use x="53.708984375" xlink:href="#Arial-BoldMT-6f"/>
     <use x="114.79296875" xlink:href="#Arial-BoldMT-6c"/>
     <use x="142.576171875" xlink:href="#Arial-BoldMT-65"/>
     <use x="198.19140625" xlink:href="#Arial-BoldMT-64"/>
     <use x="259.275390625" xlink:href="#Arial-BoldMT-6f"/>
     <use x="320.359375" xlink:href="#Arial-BoldMT-20"/>
     <use x="348.142578125" xlink:href="#Arial-BoldMT-4c"/>
     <use x="409.2265625" xlink:href="#Arial-BoldMT-6f"/>
     <use x="470.310546875" xlink:href="#Arial-BoldMT-77"/>
     <use x="548.09375" xlink:href="#Arial-BoldMT-20"/>
     <use x="575.876953125" xlink:href="#Arial-BoldMT-53"/>
     <use x="642.576171875" xlink:href="#Arial-BoldMT-65"/>
     <use x="698.19140625" xlink:href="#Arial-BoldMT-72"/>
     <use x="737.107421875" xlink:href="#Arial-BoldMT-76"/>
     <use x="792.72265625" xlink:href="#Arial-BoldMT-69"/>
     <use x="820.505859375" xlink:href="#Arial-BoldMT-63"/>
     <use x="876.12109375" xlink:href="#Arial-BoldMT-65"/>
     <use x="931.736328125" xlink:href="#Arial-BoldMT-20"/>
     <use x="959.51953125" xlink:href="#Arial-BoldMT-50"/>
     <use x="1026.21875" xlink:href="#Arial-BoldMT-75"/>
     <use x="1087.30273438" xlink:href="#Arial-BoldMT-6d"/>
     <use x="1176.21875" xlink:href="#Arial-BoldMT-70"/>
     <use x="1237.30273438" xlink:href="#Arial-BoldMT-20"/>
     <use x="1265.0859375" xlink:href="#Arial-BoldMT-53"/>
     <use x="1331.78515625" xlink:href="#Arial-BoldMT-74"/>
     <use x="1365.0859375" xlink:href="#Arial-BoldMT-61"/>
     <use x="1420.70117188" xlink:href="#Arial-BoldMT-74"/>
     <use x="1454.00195312" xlink:href="#Arial-BoldMT-69"/>
     <use x="1481.78515625" xlink:href="#Arial-BoldMT-6f"/>
     <use x="1542.86914062" xlink:href="#Arial-BoldMT-6e"/>
    </g>
   </g>
  </g>
 </g>
 <defs>
  <clipPath id="p7ae7bd9c5b">
   <rect height="234.953752776" width="722.428804118" x="128.611195882" y="30.56"/>
  </clipPath>
 </defs>
</svg>
